<?xml version="1.0" encoding="UTF-8" standalone="no"?>
<!-- Created with Inkscape (http://www.inkscape.org/) -->

<svg
   version="1.1"
   id="svg1"
   width="985.33331"
   height="985.33331"
   viewBox="0 0 985.33331 985.33331"
   xmlns="http://www.w3.org/2000/svg"
   xmlns:svg="http://www.w3.org/2000/svg">
  <defs
     id="defs1" />
  <g
     id="g1">
    <g
       id="g6013">
      <path
         style="fill:#e9e9e9"
         d="m 630.66665,966.67262 c -10.62699,-1.0714 -5.02457,1.90847 -76.9039,-40.90428 -32.86952,-19.57774 -71.7298,-42.68469 -86.35619,-51.34879 l -26.59343,-15.7529 H 322.99699 c -139.8229,0 -133.90555,0.75425 -141.06026,-17.98011 l -2.36518,-6.19312 10.34028,-62.24672 c 5.68716,-34.23569 10.62858,-63.51696 10.98095,-65.06947 l 0.64067,-2.82276 -25.10006,-0.64054 c -39.95993,-1.01976 -39.03074,-0.0782 -62.21557,-63.04728 C 41.453205,443.04068 68.946667,269.41959 192.56355,145.91374 343.12485,-4.5123271 594.42288,-24.3318 790.10804,98.786366 c 61.97897,38.994974 65.93389,46.638474 39.64947,76.628954 -20.38201,23.25585 -87.61849,100.7974 -90.87403,104.80194 l -3.11651,3.83351 13.16303,13.78678 c 51.71309,54.16361 74.4587,102.98486 106.29989,228.16244 9.1403,35.93333 20.87629,81.83333 26.07998,102 12.37809,47.97067 12.87297,50.57337 10.88063,57.22322 -2.15126,7.18025 -7.05541,12.69972 -13.61653,15.32495 l -5.43593,2.17504 -47.56903,0.23306 -47.56903,0.23306 -5.33333,-2.78612 c -9.99157,-5.21957 -10.22128,-5.67548 -25.73188,-51.06988 -27.72902,-81.15369 -37.74276,-110.31059 -39.72491,-115.66666 l -2.0971,-5.66667 -44.88972,0.0293 -44.88972,0.0293 -5.34477,2.42808 c -21.294,9.67366 -21.51862,41.74167 -0.37811,53.98191 9.101,5.26943 16.04181,6.432 43.83714,7.34259 l 26.11427,0.85552 5.65358,3.91813 c 3.10948,2.15496 6.76898,6.10447 8.13224,8.77668 2.47875,4.85874 44.03605,132.22157 83.30369,255.30519 11.4639,35.93333 21.70711,67.99021 22.7627,71.23752 4.67567,14.38371 -1.17627,27.7486 -14.74741,33.6807 -4.34252,1.89816 -136.68949,2.83298 -154,1.08775 z"
         id="path6040" />
      <path
         style="fill:#d1d1d1"
         d="m 616.52101,962.49906 c -4.31989,-2.29218 -18.65436,-10.61533 -31.85436,-18.4959 -13.2,-7.88057 -50.7969,-30.29279 -83.54868,-49.80493 l -59.54868,-35.47662 -121.11798,-0.36081 -121.11798,-0.36082 -5.35624,-3.07105 c -2.94593,-1.68907 -6.72473,-5.06824 -8.39734,-7.50926 -6.45783,-9.42458 -6.49348,-8.87555 5.05055,-77.78704 5.88666,-35.14018 10.70303,-64.58305 10.70303,-65.4286 0,-1.10712 -7.10485,-1.53738 -25.38645,-1.53738 h -25.38645 l -4.94688,-2.53691 c -9.48714,-4.86528 -10.96027,-7.31927 -23.29508,-38.80569 C 69.566506,526.66696 60.483534,408.3945 94.877043,303.99999 185.45691,29.063212 535.87743,-69.178578 800.66665,106.12906 c 41.70318,27.61021 48.87295,35.9673 43.34078,50.51802 -0.72924,1.91804 -23.97924,29.58901 -51.66667,61.49104 -27.68742,31.90204 -51.77151,59.77677 -53.52019,61.94386 l -3.17942,3.94016 11.21778,11.65559 c 31.94096,33.18758 57.27078,73.39813 75.79457,120.32226 12.0726,30.58212 9.58379,21.52273 60.25579,219.33333 12.96921,50.62851 12.65863,56.80763 -3.2423,64.50513 l -5.84227,2.8282 h -48.03599 -48.03599 l -5.87638,-3.09931 c -8.27616,-4.365 -10.39193,-8.19047 -19.79928,-35.79859 -14.3257,-42.04222 -23.90931,-69.9953 -35.34817,-103.10209 l -11.05644,-32 -45.5352,-0.35088 -45.5352,-0.35087 -4.30104,2.16681 c -25.27206,12.73176 -21.31656,47.07984 6.67816,57.99057 l 7.68746,2.99613 24.66667,0.47207 c 36.49853,0.6985 41.27357,3.34315 49.06755,27.17605 18.91123,57.82786 44.44493,136.52923 52.31022,161.23344 5.25324,16.5 17.25023,54 26.65997,83.33334 24.73898,77.1197 24.4076,75.96413 23.57137,82.1987 -0.87971,6.55877 -6.50535,13.97698 -13.73586,18.11269 l -5.20659,2.97807 -78.8123,0.0219 -78.81231,0.0219 z"
         id="path6039" />
      <path
         style="fill:#b0b0b0"
         d="m 619.10215,963.42896 c -6.58226,-3.0647 -29.96359,-16.825 -131.83067,-77.58455 l -45.39518,-27.07636 -121.27149,-0.38403 -121.27148,-0.38404 -4.13541,-2.26522 c -5.50197,-3.01378 -12.30031,-10.90469 -13.29002,-15.4259 -0.43851,-2.00321 -1.01504,-4.35752 -1.28118,-5.2318 -0.39609,-1.30119 16.24972,-103.70377 20.49416,-126.07707 l 1.2015,-6.33334 -25.49452,-0.0293 -25.49453,-0.0293 -5.38849,-2.44766 C 135.43205,695.38514 125.61638,674.63777 106.00302,615.73546 50.07622,447.77759 69.676425,295.20212 161.97863,180 308.7033,-3.1266473 589.30725,-34.916266 802.66665,107.41646 c 39.11103,26.09109 46.70956,35.10966 41.38372,49.11767 -1.17841,3.09946 -27.11874,33.58803 -84.06048,98.7992 -12.16645,13.93333 -22.57939,26.08758 -23.13988,27.00943 -0.66373,1.09167 3.41325,6.43814 11.69254,15.33333 52.88481,56.81899 74.53322,103.17539 106.00448,226.99057 8.76071,34.46666 20.55439,80.66666 26.20818,102.66666 5.65378,22 10.81944,42.7 11.47924,46 2.32314,11.61928 -3.01042,21.75542 -14.09675,26.79015 l -5.47105,2.48462 -47.2457,0.0293 -47.2457,0.0293 -5.74499,-2.7811 c -3.15975,-1.52961 -7.00723,-4.55375 -8.54996,-6.72032 -2.18921,-3.07445 -38.247,-105.21882 -55.00994,-155.83191 l -2.87037,-8.66666 -44,-0.38501 c -52.16112,-0.45641 -50.96704,-0.60669 -59.28352,7.46105 -15.67769,15.20879 -11.10398,39.82934 9.33713,50.26233 8.86031,4.52224 19.23081,5.99138 42.5246,6.02424 l 20.75512,0.0293 5.33333,2.46926 c 12.56736,5.81849 13.05052,7.1357 82.7032,225.47217 8.53898,26.76667 20.57398,64.4835 26.74444,83.81519 6.17047,19.33168 11.21903,36.60095 11.21903,38.37615 0,8.40204 -6.67444,17.95893 -15.33334,21.95527 l -5.33333,2.46149 -77.33333,0.0163 -77.33333,0.0163 z"
         id="path6038" />
      <path
         style="fill:#909090"
         d="m 620.18673,963.97026 c -6.00544,-2.72503 -19.90087,-10.89894 -119.50543,-70.29834 l -58.68131,-34.99473 -38.66666,-0.0239 c -67.20374,-0.0416 -199.82093,-1.4124 -204.36184,-2.11241 -9.49608,-1.46387 -17.63816,-12.46667 -17.63816,-23.83533 0,-5.72145 19.23719,-123.83291 20.85625,-128.05213 l 0.76239,-1.98674 -25.80932,-0.0293 -25.80932,-0.0293 L 146,700.14659 C 135.48141,695.29195 125.68594,674.66204 106.50965,616.9773 33.869642,398.46689 89.20075,205.65355 256.66666,93.72237 420.44674,-15.74527 651.49168,-4.5900095 821.64727,121.00064 c 18.82201,13.89239 22.40864,17.92273 23.34539,26.23352 1.05897,9.39516 -1.05693,12.07773 -85.88835,108.89036 l -24.229,27.65101 2.75527,2.44556 c 23.86893,21.186 53.2181,62.55963 72.19879,101.7789 17.91707,37.02153 24.04895,55.69562 43.34396,132 6.58302,26.03333 17.74483,69.77418 24.80402,97.20188 7.0592,27.4277 13.37324,52.70721 14.03121,56.17668 2.1852,11.52253 -3.22629,21.90922 -13.95342,26.78188 l -5.38849,2.44766 -46.73821,0.0293 -46.7382,0.0293 -6.8168,-3.39695 c -8.62418,-4.29761 -10.00273,-6.48587 -17.05286,-27.06908 -3.17755,-9.27702 -12.17718,-35.4673 -19.99918,-58.20063 -7.82201,-22.73334 -17.61923,-51.23333 -21.77162,-63.33333 l -7.54979,-22 -46.09148,-0.35034 -46.09147,-0.35033 -5.90853,3.12052 c -17.69313,9.34442 -19.34286,35.79559 -3.123,50.07288 9.39608,8.27076 16.04443,9.80217 46.54781,10.72203 28.57544,0.86172 29.86499,1.15504 37.70388,8.57618 l 4.37055,4.13764 19.20848,58.70237 c 10.56467,32.28631 26.50409,81.50237 35.42094,109.36904 8.91685,27.86667 23.33052,72.86667 32.03038,100 8.69985,27.13333 17.15138,53.94085 18.78118,59.57225 l 2.96326,10.23893 -1.60819,5.36765 c -2.12408,7.08954 -7.50904,13.29899 -14.14866,16.31495 l -5.38849,2.44765 h -77.33333 -77.33333 z"
         id="path6037" />
      <path
         style="fill:#7f807f"
         d="M 620.38324,964.07479 C 617.29402,962.66327 576.19402,938.519 529.0499,910.42085 l -85.71658,-51.08753 -25.33333,-0.66667 c -13.93333,-0.36667 -68.81066,-0.86182 -121.94961,-1.10033 -104.33966,-0.46833 -101.30128,-0.25131 -108.29889,-7.73546 -4.53005,-4.84501 -6.41816,-9.82874 -6.41816,-16.94093 0,-5.10851 19.06454,-122.45357 20.77772,-127.88994 l 0.73531,-2.33334 -25.75651,-0.0293 -25.75652,-0.0293 -5.48812,-2.49226 C 136.33192,695.79567 131.49865,686.45588 113.93214,638.44716 48.490758,459.5979 65.616464,300.45212 163.42191,178.54858 307.97704,-1.6232086 586.80958,-33.95831 798.52726,104.89794 c 42.94772,28.1675 51.93723,38.64522 44.87437,52.30328 C 841.32411,161.21871 741.6229,277.22 736.82528,281.20168 l -2.18198,1.81088 9.70576,10.16038 c 55.75561,58.36723 78.11777,105.75879 110.80537,234.82705 6.9646,27.5 18.15955,71.3 24.87767,97.33333 15.92592,61.71447 15.69657,67.45464 -3.00749,75.2697 l -4.93898,2.06363 h -46.4477 -46.44769 l -6.59513,-3.35015 c -9.67335,-4.9138 -9.5507,-4.64321 -32.77489,-72.31297 -11.76667,-34.28528 -24.18986,-70.43687 -27.60709,-80.33687 l -6.21314,-18 -46.09148,-0.35034 -46.09147,-0.35033 -5.90853,3.12052 c -17.77546,9.3879 -19.34422,35.79439 -2.98209,50.19691 9.58111,8.43364 14.70455,9.61599 45.74023,10.55566 l 27.33334,0.82757 4.5253,2.66667 c 10.73441,6.32557 11.31493,7.94271 80.88893,225.33333 10.79606,33.73333 23.50959,73.33333 28.25229,88 11.87551,36.72474 11.59327,43.63463 -2.1777,53.31487 l -5.7166,4.01846 -78.88611,0.3206 -78.88611,0.3206 z"
         id="path6036" />
      <path
         style="fill:#7e7e81"
         d="m 620.39101,964.06172 c -3.08493,-1.4005 -37.58493,-21.5932 -76.66666,-44.87266 -39.08173,-23.27946 -78.22758,-46.5514 -86.99078,-51.71541 l -15.93308,-9.38911 -118.73358,-0.41214 c -65.30347,-0.22667 -120.69641,-0.72529 -123.09542,-1.10804 -9.40315,-1.50022 -17.63816,-12.49715 -17.63816,-23.55378 0,-5.16922 19.03288,-122.38228 20.78617,-128.01059 l 0.72686,-2.33334 -24.42318,-0.007 c -41.86137,-0.0127 -41.04423,0.856 -67.08899,-71.3259 C 43.084063,442.18108 72.293439,265.98396 191.59836,147.16296 312.49095,26.760726 494.70216,-12.40169 671.33332,44.054155 c 76.88184,24.573405 174,82.913235 174,104.523505 0,8.06158 -19.63379,32.33299 -96.13304,118.84024 l -14.22375,16.08456 11.3224,11.91544 c 25.88371,27.23943 44.35601,53.94449 61.73474,89.24876 19.64919,39.91663 25.18292,56.82122 47.79317,146 7.34417,28.96666 18.53642,72.76666 24.87167,97.33333 15.17261,58.83592 14.86799,64.85573 -3.6739,72.60303 l -4.93898,2.06363 -46.37616,-0.0293 -46.37615,-0.0293 -5.33334,-2.46926 c -10.67682,-4.9432 -11.05271,-5.74662 -34.07617,-72.83253 -11.82364,-34.45181 -24.29345,-70.73964 -27.71068,-80.63964 l -6.21314,-18 -46.71257,-0.35007 -46.71257,-0.35008 -6.09167,3.86323 c -16.13027,10.22952 -17.65588,33.03977 -3.18372,47.60186 10.15796,10.22108 14.73274,11.41941 47.36719,12.40748 l 27.33334,0.82757 4.5253,2.66667 c 10.56236,6.22418 14.32457,16.61976 74.79353,206.66666 8.1666,25.66667 20.19091,63.16667 26.72068,83.33334 6.52978,20.16666 13.12186,41.29226 14.64907,46.94576 l 2.77674,10.2791 -1.53786,5.7209 c -1.88503,7.01241 -9.86368,15.02247 -16.91374,16.98034 -3.21889,0.89391 -32.22054,1.38453 -81.01372,1.37051 l -76,-0.0218 z"
         id="path6035" />
      <path
         style="fill:#a29022"
         d="m 620.43271,964.08039 c -5.31024,-2.411 -39.99007,-22.86749 -134.61973,-79.40774 l -42.85368,-25.60463 -13.14632,-0.81903 c -7.23048,-0.45047 -61.98161,-0.86836 -121.66918,-0.92865 -117.59763,-0.11878 -113.24777,0.15182 -120.39231,-7.48948 -4.45106,-4.76053 -6.41816,-9.81603 -6.41816,-16.49485 0,-6.2831 17.32355,-113.1949 20.68702,-127.66936 l 0.69712,-3 -24.35874,-0.007 C 139.73408,702.64743 138.81544,702.03713 125.07257,667.2588 70.142651,528.25068 60.401081,411.2935 94.927159,305.33333 167.89964,81.38156 418.2272,-34.081359 665.33332,42.235006 c 79.58603,24.579384 180,83.947114 180,106.421364 0,8.2085 -9.2524,19.67196 -92.22089,114.25913 l -18.34633,20.9155 11.19393,11.42307 c 51.81258,52.87317 76.31545,104.15582 106.69448,223.30345 8.33581,32.69336 20.59865,80.62938 27.25075,106.5245 15.89814,61.88788 15.67384,67.76844 -2.88065,75.521 l -4.93898,2.06363 -46.37616,-0.0293 -46.37615,-0.0293 -5.33334,-2.46926 C 763.32614,695.197 763.02432,694.54681 739.27171,625.326 727.06866,589.76336 714.59036,553.46666 711.54217,544.66666 l -5.54218,-16 -46.71257,-0.35007 -46.71257,-0.35008 -6.09167,3.86323 c -16.13027,10.22952 -17.65588,33.03977 -3.18372,47.60186 10.14779,10.21084 14.73411,11.41461 47.36719,12.43243 37.74631,1.1773 39.46936,2.31467 49.17526,32.46023 3.13006,9.72165 13.99598,43.17573 24.1465,74.34239 10.15051,31.16667 22.75028,70.16667 27.99948,86.66667 5.24921,16.5 17.27546,54 26.725,83.33333 9.44954,29.33333 18.43455,57.95893 19.9667,63.61243 l 2.78572,10.2791 -1.53786,5.7209 c -1.88503,7.01241 -9.86368,15.02247 -16.91374,16.98034 -3.21889,0.89391 -32.22054,1.38453 -81.01372,1.37051 l -76,-0.0218 z"
         id="path6034" />
      <path
         style="fill:#707070"
         d="m 620.43271,964.08039 c -5.31024,-2.411 -39.99007,-22.86749 -134.61973,-79.40774 l -42.85368,-25.60463 -13.14632,-0.81903 c -7.23048,-0.45047 -61.98161,-0.86836 -121.66918,-0.92865 -117.59763,-0.11878 -113.24777,0.15182 -120.39231,-7.48948 -4.45106,-4.76053 -6.41816,-9.81603 -6.41816,-16.49485 0,-6.2831 17.32355,-113.1949 20.68702,-127.66936 l 0.69712,-3 -24.35874,-0.007 C 139.73408,702.64743 138.81544,702.03713 125.07257,667.2588 70.142651,528.25068 60.401081,411.2935 94.927159,305.33333 167.89964,81.38156 418.2272,-34.081359 665.33332,42.235006 c 79.58603,24.579384 180,83.947114 180,106.421364 0,8.2085 -9.2524,19.67196 -92.22089,114.25913 l -18.34633,20.9155 11.19393,11.42307 c 51.81258,52.87317 76.31545,104.15582 106.69448,223.30345 8.33581,32.69336 20.59865,80.62938 27.25075,106.5245 15.89814,61.88788 15.67384,67.76844 -2.88065,75.521 l -4.93898,2.06363 -46.37616,-0.0293 -46.37615,-0.0293 -5.33334,-2.46926 C 763.32614,695.197 763.02432,694.54681 739.27171,625.326 727.06866,589.76336 714.59036,553.46666 711.54217,544.66666 l -5.54218,-16 -46.71257,-0.35007 -46.71257,-0.35008 -6.09167,3.86323 c -16.13027,10.22952 -17.65588,33.03977 -3.18372,47.60186 10.14779,10.21084 14.73411,11.41461 47.36719,12.43243 37.74631,1.1773 39.46936,2.31467 49.17526,32.46023 3.13006,9.72165 13.99598,43.17573 24.1465,74.34239 10.15051,31.16667 22.75028,70.16667 27.99948,86.66667 5.24921,16.5 17.27546,54 26.725,83.33333 9.44954,29.33333 18.43455,57.95893 19.9667,63.61243 l 2.78572,10.2791 -1.53786,5.7209 c -1.88503,7.01241 -9.86368,15.02247 -16.91374,16.98034 -3.21889,0.89391 -32.22054,1.38453 -81.01372,1.37051 l -76,-0.0218 z m 111.56727,-54.83785 c 0,-1.25189 -5.70356,-19.27064 -28.67042,-90.57589 -5.12562,-15.91353 -44.43336,-141.09997 -50.86696,-162 l -2.46261,-8 -14,-0.37189 c -19.90314,-0.52871 -31.8372,-3.21555 -46.66667,-10.50657 l -12.66667,-6.22766 -12.02845,-12.11361 c -48.82536,-49.17098 -28.83366,-129.21111 36.69512,-146.91511 9.59641,-2.59267 57.07108,-3.53645 97.33333,-1.93495 l 20.66667,0.82205 8.66666,4.07768 c 21.61576,10.17024 20.8062,8.48248 68.25131,142.28821 l 9.85199,27.78482 10.94887,0.21518 c 6.02189,0.11835 10.94864,-0.33404 10.94836,-1.00532 -2.9e-4,-0.67128 -5.06301,-19.57128 -11.25049,-42 C 810.56255,580.35076 801.30757,546.09999 796.1834,526.66666 771.12123,431.61864 755.30784,394.75122 721.21309,351.88039 620.58141,225.34584 407.22915,218.47706 310.29304,338.651 c -58.47467,72.49241 -72.59631,167.44676 -48.72757,327.64573 1.2681,8.51102 1.28197,13.13393 0.062,20.66667 -5.49194,33.91121 -17.7506,107.53082 -18.31863,110.01292 l -0.68114,2.97633 105.01946,0.357 105.01946,0.357 20.66666,12.11307 c 68.24747,40.00093 83.51562,49.21565 90.38169,54.54764 4.19859,3.26049 11.43532,7.47287 16.08161,9.36083 4.64629,1.88795 10.94281,5.00905 13.99225,6.93576 3.04945,1.92672 14.79361,8.79952 26.09813,15.27291 l 20.55369,11.76979 h 45.77965 c 31.57622,0 45.77964,-0.44184 45.77964,-1.42411 z"
         id="path6033" />
      <path
         style="fill:#998825"
         d="m 622.52296,964.83043 c -4.54118,-1.62296 -40.41372,-22.6647 -134.94184,-79.15278 -22.59705,-13.50354 -43.12778,-25.40519 -45.62384,-26.44811 l -4.53831,-1.89622 H 318.79628 c -80.78571,0 -119.81992,-0.45363 -122.37615,-1.42215 -8.42572,-3.19242 -15.09417,-13.30319 -15.07581,-22.85807 0.01,-5.046 18.37319,-117.48425 20.7049,-126.77454 l 0.90653,-3.61191 -24.47788,-0.007 c -38.0714,-0.0116 -39.79425,-1.07224 -52.12429,-32.09023 C 82.712355,560.78324 67.884515,472.805 78.055278,383.99999 110.7836,98.235915 422.22968,-61.09056 712.66665,59.351849 c 50.07453,20.765595 122.08477,65.562981 130.08953,80.928361 6.78212,13.01848 11.63662,6.2627 -80.48276,112.00428 l -27.72657,31.82664 7.72657,7.62695 c 53.58343,52.89263 80.44386,108.01394 110.25667,226.26191 7.02578,27.86667 18.77246,74.06666 26.10375,102.66666 21.42297,83.57291 22.44231,81.98513 -52.63386,81.98513 -65.5957,0 -58.32448,5.52709 -81.34291,-61.83143 -8.29875,-24.28453 -20.39154,-59.6012 -26.87286,-78.48148 l -11.78422,-34.32778 -46.73896,-0.006 -46.73896,-0.006 -6.32864,4.0135 c -21.07356,13.36446 -15.32021,46.48417 9.76335,56.20362 l 7.37654,2.85828 26.66667,0.88384 c 41.81037,1.38576 38.37782,-2.03303 57.92427,57.69195 23.90527,73.04353 57.32924,176.67894 81.60126,253.01547 11.59379,36.46294 12.17434,39.01869 10.37974,45.69484 -1.8767,6.98159 -9.42735,14.47399 -16.81806,16.6883 -7.9728,2.38871 -153.8242,2.18945 -160.56424,-0.21936 z m 109.47702,-55.58789 c 0,-1.25189 -5.70356,-19.27064 -28.67042,-90.57589 -5.12562,-15.91353 -44.43336,-141.09997 -50.86696,-162 l -2.46261,-8 -14,-0.37189 c -19.90314,-0.52871 -31.8372,-3.21555 -46.66667,-10.50657 l -12.66667,-6.22766 -12.02845,-12.11361 c -48.82536,-49.17098 -28.83366,-129.21111 36.69512,-146.91511 9.59641,-2.59267 57.07108,-3.53645 97.33333,-1.93495 l 20.66667,0.82205 8.66666,4.07768 c 21.61576,10.17024 20.8062,8.48248 68.25131,142.28821 l 9.85199,27.78482 10.94887,0.21518 c 6.02189,0.11835 10.94864,-0.33404 10.94836,-1.00532 -2.9e-4,-0.67128 -5.06301,-19.57128 -11.25049,-42 C 810.56255,580.35076 801.30757,546.09999 796.1834,526.66666 771.12123,431.61864 755.30784,394.75122 721.21309,351.88039 620.58141,225.34584 407.22915,218.47706 310.29304,338.651 c -58.47467,72.49241 -72.59631,167.44676 -48.72757,327.64573 1.2681,8.51102 1.28197,13.13393 0.062,20.66667 -5.49194,33.91121 -17.7506,107.53082 -18.31863,110.01292 l -0.68114,2.97633 105.01946,0.357 105.01946,0.357 20.66666,12.11307 c 68.24747,40.00093 83.51562,49.21565 90.38169,54.54764 4.19859,3.26049 11.43532,7.47287 16.08161,9.36083 4.64629,1.88795 10.94281,5.00905 13.99225,6.93576 3.04945,1.92672 14.79361,8.79952 26.09813,15.27291 l 20.55369,11.76979 h 45.77965 c 31.57622,0 45.77964,-0.44184 45.77964,-1.42411 z"
         id="path6032" />
      <path
         style="fill:#877a29"
         d="m 622.52296,964.83043 c -4.54118,-1.62296 -40.41372,-22.6647 -134.94184,-79.15278 -22.59705,-13.50354 -43.12778,-25.40519 -45.62384,-26.44811 l -4.53831,-1.89622 H 318.79628 c -80.78571,0 -119.81992,-0.45363 -122.37615,-1.42215 -8.42572,-3.19242 -15.09417,-13.30319 -15.07581,-22.85807 0.01,-5.046 18.37319,-117.48425 20.7049,-126.77454 l 0.90653,-3.61191 -24.47788,-0.007 c -38.0714,-0.0116 -39.79425,-1.07224 -52.12429,-32.09023 C 82.712355,560.78324 67.884515,472.805 78.055278,383.99999 110.7836,98.235915 422.22968,-61.09056 712.66665,59.351849 c 50.07453,20.765595 122.08477,65.562981 130.08953,80.928361 6.78212,13.01848 11.63662,6.2627 -80.48276,112.00428 l -27.72657,31.82664 7.72657,7.62695 c 53.58343,52.89263 80.44386,108.01394 110.25667,226.26191 7.02578,27.86667 18.77246,74.06666 26.10375,102.66666 21.42297,83.57291 22.44231,81.98513 -52.63386,81.98513 -65.5957,0 -58.32448,5.52709 -81.34291,-61.83143 -8.29875,-24.28453 -20.39154,-59.6012 -26.87286,-78.48148 l -11.78422,-34.32778 -46.73896,-0.006 -46.73896,-0.006 -6.32864,4.0135 c -21.07356,13.36446 -15.32021,46.48417 9.76335,56.20362 l 7.37654,2.85828 26.66667,0.88384 c 41.81037,1.38576 38.37782,-2.03303 57.92427,57.69195 23.90527,73.04353 57.32924,176.67894 81.60126,253.01547 11.59379,36.46294 12.17434,39.01869 10.37974,45.69484 -1.8767,6.98159 -9.42735,14.47399 -16.81806,16.6883 -7.9728,2.38871 -153.8242,2.18945 -160.56424,-0.21936 z m 108.17286,-61.83045 c -1.31617,-4.21667 -7.81722,-24.46666 -14.44678,-45 -11.33222,-35.09858 -42.28378,-132.89388 -58.38973,-184.48954 -3.9756,-12.73592 -7.50274,-23.60016 -7.83809,-24.14276 -0.33534,-0.5426 -8.5773,-1.31027 -18.31547,-1.70594 -27.56224,-1.11988 -45.71949,-8.19787 -63.99928,-24.94798 -52.29125,-47.91543 -32.94808,-132.65156 34.24032,-149.9957 10.85684,-2.80261 107.05616,-2.99841 117.38653,-0.23893 14.10547,3.7679 25.80855,12.31392 31.5548,23.04246 3.16385,5.90707 25.44317,66.26591 46.685,126.4784 l 8.46675,24 11.47378,0.38272 11.47378,0.38272 -5.8429,-21.04939 c -3.2136,-11.57716 -13.30475,-48.94939 -22.42477,-83.04938 -30.28541,-113.23786 -40.70789,-139.17922 -73.92586,-184 -97.07748,-130.986 -310.64168,-143.35652 -413.41459,-23.94667 -58.03897,67.43435 -76.15768,171.56163 -54.51243,313.28 4.56928,29.91653 4.76023,26.80431 -5.39917,87.99999 -5.17414,31.16667 -9.70393,58.30598 -10.0662,60.30957 l -0.65867,3.6429 104.29524,0.3571 104.29524,0.3571 5.33334,2.74271 c 2.93333,1.5085 13.43333,7.54081 23.33333,13.40515 9.9,5.86434 30.6,18.06034 46,27.10224 15.4,9.0419 31.6,19.13958 36,22.4393 4.4,3.29973 13.4,8.58628 20,11.74789 6.6,3.16162 22.2,11.75486 34.66666,19.0961 l 22.66667,13.3477 46.87777,0.0594 46.87777,0.0595 z"
         id="path6031" />
      <path
         style="fill:#736929"
         d="m 622.52296,964.83043 c -4.54118,-1.62296 -40.41372,-22.6647 -134.94184,-79.15278 -22.59705,-13.50354 -43.12778,-25.40519 -45.62384,-26.44811 l -4.53831,-1.89622 H 318.79628 c -80.78571,0 -119.81992,-0.45363 -122.37615,-1.42215 -8.42572,-3.19242 -15.09417,-13.30319 -15.07581,-22.85807 0.01,-5.046 18.37319,-117.48425 20.7049,-126.77454 l 0.90653,-3.61191 -24.47788,-0.007 c -38.0714,-0.0116 -39.79425,-1.07224 -52.12429,-32.09023 C 82.712355,560.78324 67.884515,472.805 78.055278,383.99999 110.7836,98.235915 422.22968,-61.09056 712.66665,59.351849 c 50.07453,20.765595 122.08477,65.562981 130.08953,80.928361 6.78212,13.01848 11.63662,6.2627 -80.48276,112.00428 l -27.72657,31.82664 7.72657,7.62695 c 53.58343,52.89263 80.44386,108.01394 110.25667,226.26191 7.02578,27.86667 18.77246,74.06666 26.10375,102.66666 21.42297,83.57291 22.44231,81.98513 -52.63386,81.98513 -65.5957,0 -58.32448,5.52709 -81.34291,-61.83143 -8.29875,-24.28453 -20.39154,-59.6012 -26.87286,-78.48148 l -11.78422,-34.32778 -46.73896,-0.006 -46.73896,-0.006 -6.32864,4.0135 c -21.07356,13.36446 -15.32021,46.48417 9.76335,56.20362 l 7.37654,2.85828 26.66667,0.88384 c 41.81037,1.38576 38.37782,-2.03303 57.92427,57.69195 23.90527,73.04353 57.32924,176.67894 81.60126,253.01547 11.59379,36.46294 12.17434,39.01869 10.37974,45.69484 -1.8767,6.98159 -9.42735,14.47399 -16.81806,16.6883 -7.9728,2.38871 -153.8242,2.18945 -160.56424,-0.21936 z m 110.24867,-56.371 c -2.24507,-5.85057 -36.5078,-113.2331 -57.36679,-179.79278 -12.8698,-41.06666 -23.98794,-76.01666 -24.70699,-77.66666 l -1.30736,-3 -12.36192,-0.0465 c -24.05959,-0.0905 -43.40498,-5.8036 -60.17593,-17.7711 C 514.78088,585.8889 530.9436,488.72897 603.05239,472.68628 l 9.72861,-2.16441 52.60949,0.40664 52.6095,0.40663 6.95893,2.8554 c 9.32318,3.8255 19.12208,11.19237 23.72821,17.83902 3.46051,4.99351 24.54254,61.26043 48.07167,128.30095 l 9.24118,26.33051 11.80932,0.003 11.80932,0.003 -0.79504,-2.07184 C 827.68852,641.6369 801.82626,546.8633 791.36702,507.33332 767.76293,418.12323 744.6893,372.68631 700.98107,329.34404 612.9642,242.06409 459.87774,226.47242 358.53094,294.46591 264.05965,357.84662 232.29647,472.96882 259.49674,653.40463 l 3.52819,23.40464 -9.62269,58.59536 c -5.29249,32.22744 -9.93814,59.94535 -10.32368,61.59535 l -0.70099,3 103.14455,0.013 103.14454,0.013 6.66666,3.13614 c 11.02231,5.18513 102.30836,59.55833 107.305,63.91465 2.55108,2.22417 9.45108,6.27264 15.33333,8.99661 5.88225,2.72397 22.06806,11.6218 35.96847,19.77295 l 25.27346,14.82027 h 47.20252 47.20252 z"
         id="path6030" />
      <path
         style="fill:#4e4e4e"
         d="m 622.52296,964.83043 c -4.54118,-1.62296 -40.41372,-22.6647 -134.94184,-79.15278 -22.59705,-13.50354 -43.12778,-25.40519 -45.62384,-26.44811 l -4.53831,-1.89622 H 318.79628 c -80.78571,0 -119.81992,-0.45363 -122.37615,-1.42215 -8.42572,-3.19242 -15.09417,-13.30319 -15.07581,-22.85807 0.01,-5.046 18.37319,-117.48425 20.7049,-126.77454 l 0.90653,-3.61191 -24.47788,-0.007 c -38.0714,-0.0116 -39.79425,-1.07224 -52.12429,-32.09023 C 82.712355,560.78324 67.884515,472.805 78.055278,383.99999 110.7836,98.235915 422.22968,-61.09056 712.66665,59.351849 c 50.07453,20.765595 122.08477,65.562981 130.08953,80.928361 6.78212,13.01848 11.63662,6.2627 -80.48276,112.00428 l -27.72657,31.82664 7.72657,7.62695 c 53.58343,52.89263 80.44386,108.01394 110.25667,226.26191 7.02578,27.86667 18.77246,74.06666 26.10375,102.66666 21.42297,83.57291 22.44231,81.98513 -52.63386,81.98513 -65.5957,0 -58.32448,5.52709 -81.34291,-61.83143 -8.29875,-24.28453 -20.39154,-59.6012 -26.87286,-78.48148 l -11.78422,-34.32778 -46.73896,-0.006 -46.73896,-0.006 -6.32864,4.0135 c -21.07356,13.36446 -15.32021,46.48417 9.76335,56.20362 l 7.37654,2.85828 26.66667,0.88384 c 41.81037,1.38576 38.37782,-2.03303 57.92427,57.69195 23.90527,73.04353 57.32924,176.67894 81.60126,253.01547 11.59379,36.46294 12.17434,39.01869 10.37974,45.69484 -1.8767,6.98159 -9.42735,14.47399 -16.81806,16.6883 -7.9728,2.38871 -153.8242,2.18945 -160.56424,-0.21936 z m 110.46866,-55.83045 c -2.6054,-6.92553 -40.05613,-124.43876 -62.99513,-197.66666 -7.81049,-24.93333 -15.44673,-49.30175 -16.96942,-54.15203 l -2.76852,-8.8187 -17.46262,-0.77336 c -26.592,-1.17766 -43.81328,-7.27456 -61.30806,-21.70508 -56.74427,-46.80531 -37.13886,-138.78437 32.68519,-153.3431 7.88353,-1.64376 19.25284,-1.94044 61.74485,-1.61124 l 52.08208,0.40351 6,2.55431 c 24.97763,10.63343 23.20171,7.07784 71.47526,143.10207 l 10.52473,29.65638 11.75652,0.0103 11.75652,0.0103 -0.72798,-2.33333 C 826.41929,636.75053 811.51635,582.25426 799.339,536.65663 770.45058,428.48503 757.81624,398.13304 723.23533,353.82973 616.37259,216.9226 386.18455,218.45325 296.60143,356.66666 250.57916,427.67217 239.02402,520.13281 259.42069,654.17563 l 3.4758,22.84231 -10.11491,60.85896 c -5.56321,33.47243 -10.11492,61.12924 -10.11492,61.45959 0,0.33035 46.99129,0.76477 104.42508,0.9654 l 104.42508,0.36476 19.90825,11.51696 c 48.61764,28.12539 86.9388,51.19339 91.21325,54.90719 2.55108,2.21648 9.45108,6.27644 15.33333,9.02214 5.88225,2.7457 22.07754,11.64352 35.98953,19.77294 l 25.29453,14.78077 h 47.18146 c 37.19067,0 47.04868,-0.35292 46.55445,-1.66667 z"
         id="path6029" />
      <path
         style="fill:#645b28"
         d="m 621.33332,964.18408 c -6.00379,-2.39222 -20.5336,-10.94589 -124,-72.9986 l -55.33333,-33.1855 -122.77127,-0.66666 -122.77126,-0.66667 -4.90771,-3.74391 c -6.08647,-4.64315 -10.21642,-12.49028 -10.21642,-19.41175 0,-4.58586 18.68533,-119.14202 20.82177,-127.6543 l 0.80065,-3.19004 H 178.3435 c -38.99719,0 -38.72879,0.18421 -53.78638,-36.91473 C 41.406115,460.88417 63.752303,279.76984 188,151.55178 333.43318,1.4712355 574.0469,-24.23587 772.66665,89.086149 c 37.83277,21.585391 68.54936,45.095991 71.41526,54.661511 3.12728,10.43793 2.77393,10.93539 -55.47331,78.09781 l -54.11723,62.40029 12.05663,12.21045 c 49.69636,50.33035 76.67793,105.92301 103.96577,214.21045 6.56026,26.03333 18.5784,73.20504 26.70698,104.82602 23.02229,89.55902 24.43265,87.1591 -51.22077,87.1591 -58.75148,0 -59.94992,-0.44256 -68.56149,-25.31846 -2.41173,-6.96667 -10.56399,-30.66667 -18.11613,-52.66667 -7.55214,-22 -18.13533,-52.70496 -23.51821,-68.23324 l -9.78704,-28.23325 -12.00856,-0.87866 c -6.60471,-0.48326 -27.39068,-0.6107 -46.19105,-0.2832 l -34.18249,0.59547 -5.7583,3.18311 c -22.91371,12.66637 -18.11897,47.19183 7.96925,57.38426 l 7.48736,2.92525 26.66667,0.78376 26.66666,0.78376 5.0155,2.47898 c 6.28622,3.10706 10.79848,8.40318 13.43971,15.77444 4.33495,12.09814 32.7165,99.56662 79.08145,243.71932 l 25.08774,78 0.0211,9.43712 0.0211,9.43712 -3.59141,4.70858 c -1.97527,2.58971 -5.87527,5.84301 -8.66666,7.22954 l -5.07527,2.52097 -77.33333,0.2874 -77.33333,0.28741 z m 111.6583,-55.1841 c -2.6054,-6.92553 -40.05613,-124.43876 -62.99513,-197.66666 -7.81049,-24.93333 -15.44673,-49.30175 -16.96942,-54.15203 l -2.76852,-8.8187 -17.46262,-0.77336 c -26.592,-1.17766 -43.81328,-7.27456 -61.30806,-21.70508 -56.74427,-46.80531 -37.13886,-138.78437 32.68519,-153.3431 7.88353,-1.64376 19.25284,-1.94044 61.74485,-1.61124 l 52.08208,0.40351 6,2.55431 c 24.97763,10.63343 23.20171,7.07784 71.47526,143.10207 l 10.52473,29.65638 11.75652,0.0103 11.75652,0.0103 -0.72798,-2.33333 C 826.41929,636.75053 811.51635,582.25426 799.339,536.65663 770.45058,428.48503 757.81624,398.13304 723.23533,353.82973 616.37259,216.9226 386.18455,218.45325 296.60143,356.66666 250.57916,427.67217 239.02402,520.13281 259.42069,654.17563 l 3.4758,22.84231 -10.11491,60.85896 c -5.56321,33.47243 -10.11492,61.12924 -10.11492,61.45959 0,0.33035 46.99129,0.76477 104.42508,0.9654 l 104.42508,0.36476 19.90825,11.51696 c 48.61764,28.12539 86.9388,51.19339 91.21325,54.90719 2.55108,2.21648 9.45108,6.27644 15.33333,9.02214 5.88225,2.7457 22.07754,11.64352 35.98953,19.77294 l 25.29453,14.78077 h 47.18146 c 37.19067,0 47.04868,-0.35292 46.55445,-1.66667 z"
         id="path6028" />
      <path
         style="fill:#514b26"
         d="m 621.33332,964.18408 c -6.00379,-2.39222 -20.5336,-10.94589 -124,-72.9986 l -55.33333,-33.1855 -122.77127,-0.66666 -122.77126,-0.66667 -4.90771,-3.74391 c -6.08647,-4.64315 -10.21642,-12.49028 -10.21642,-19.41175 0,-4.58586 18.68533,-119.14202 20.82177,-127.6543 l 0.80065,-3.19004 H 178.3435 c -38.99719,0 -38.72879,0.18421 -53.78638,-36.91473 C 41.406115,460.88417 63.752303,279.76984 188,151.55178 333.43318,1.4712355 574.0469,-24.23587 772.66665,89.086149 c 37.83277,21.585391 68.54936,45.095991 71.41526,54.661511 3.12728,10.43793 2.77393,10.93539 -55.47331,78.09781 l -54.11723,62.40029 12.05663,12.21045 c 49.69636,50.33035 76.67793,105.92301 103.96577,214.21045 6.56026,26.03333 18.5784,73.20504 26.70698,104.82602 23.02229,89.55902 24.43265,87.1591 -51.22077,87.1591 -58.75148,0 -59.94992,-0.44256 -68.56149,-25.31846 -2.41173,-6.96667 -10.56399,-30.66667 -18.11613,-52.66667 -7.55214,-22 -18.13533,-52.70496 -23.51821,-68.23324 l -9.78704,-28.23325 -12.00856,-0.87866 c -6.60471,-0.48326 -27.39068,-0.6107 -46.19105,-0.2832 l -34.18249,0.59547 -5.7583,3.18311 c -22.91371,12.66637 -18.11897,47.19183 7.96925,57.38426 l 7.48736,2.92525 26.66667,0.78376 26.66666,0.78376 5.0155,2.47898 c 6.28622,3.10706 10.79848,8.40318 13.43971,15.77444 4.33495,12.09814 32.7165,99.56662 79.08145,243.71932 l 25.08774,78 0.0211,9.43712 0.0211,9.43712 -3.59141,4.70858 c -1.97527,2.58971 -5.87527,5.84301 -8.66666,7.22954 l -5.07527,2.52097 -77.33333,0.2874 -77.33333,0.28741 z m 111.65958,-55.1841 c -3.04949,-8.12263 -71.6702,-224.53177 -79.63235,-251.13656 l -2.8341,-9.4699 -17.59657,-0.81772 c -20.32491,-0.94451 -29.42675,-3.09145 -43.49685,-10.26 -71.22731,-36.28947 -67.17376,-136.78149 6.56696,-162.80211 l 8.66666,-3.05817 51.33334,-0.49189 c 55.95381,-0.53616 62.09262,-0.0104 74.61344,6.38996 18.781,9.60045 20.2651,12.81212 65.4541,141.6464 l 9.70417,27.66666 h 11.87066 11.87066 l -0.73763,-2.33333 C 826.74755,637.91864 810.55922,578.51811 800.53534,540.71091 770.77824,428.47559 756.7597,395.03721 720.86212,350.66666 628.76177,236.82768 444.539,218.2382 335.27118,311.75759 260.43006,375.81209 234.87171,488.6964 258.73657,649.79014 l 3.91938,26.45681 -2.71594,17.54319 c -1.49377,9.64875 -5.99136,37.16042 -9.99465,61.13704 -4.00328,23.97663 -7.2787,43.92663 -7.2787,44.33334 0,0.4067 45.75,0.74281 101.66667,0.7469 62.78335,0.005 103.45147,0.51049 106.33333,1.32276 7.60079,2.14233 100.13511,57.0682 116.66666,69.25019 2.93333,2.16155 8.03333,4.95367 11.33333,6.20471 3.3,1.25105 17.1,8.70336 30.66667,16.5607 13.56667,7.85735 25.86667,14.95066 27.33333,15.76293 4.05845,2.24764 97.17145,2.14254 96.32625,-0.10873 z"
         id="path6027" />
      <path
         style="fill:#373736"
         d="m 621.33332,964.18408 c -6.00379,-2.39222 -20.5336,-10.94589 -124,-72.9986 l -55.33333,-33.1855 -122.77127,-0.66666 -122.77126,-0.66667 -4.90771,-3.74391 c -6.08647,-4.64315 -10.21642,-12.49028 -10.21642,-19.41175 0,-4.58586 18.68533,-119.14202 20.82177,-127.6543 l 0.80065,-3.19004 H 178.3435 c -38.99719,0 -38.72879,0.18421 -53.78638,-36.91473 C 41.406115,460.88417 63.752303,279.76984 188,151.55178 333.43318,1.4712355 574.0469,-24.23587 772.66665,89.086149 c 37.83277,21.585391 68.54936,45.095991 71.41526,54.661511 3.12728,10.43793 2.77393,10.93539 -55.47331,78.09781 l -54.11723,62.40029 12.05663,12.21045 c 49.69636,50.33035 76.67793,105.92301 103.96577,214.21045 6.56026,26.03333 18.5784,73.20504 26.70698,104.82602 23.02229,89.55902 24.43265,87.1591 -51.22077,87.1591 -58.75148,0 -59.94992,-0.44256 -68.56149,-25.31846 -2.41173,-6.96667 -10.56399,-30.66667 -18.11613,-52.66667 -7.55214,-22 -18.13533,-52.70496 -23.51821,-68.23324 l -9.78704,-28.23325 -12.00856,-0.87866 c -6.60471,-0.48326 -27.39068,-0.6107 -46.19105,-0.2832 l -34.18249,0.59547 -5.7583,3.18311 c -22.91371,12.66637 -18.11897,47.19183 7.96925,57.38426 l 7.48736,2.92525 26.66667,0.78376 26.66666,0.78376 5.0155,2.47898 c 6.28622,3.10706 10.79848,8.40318 13.43971,15.77444 4.33495,12.09814 32.7165,99.56662 79.08145,243.71932 l 25.08774,78 0.0211,9.43712 0.0211,9.43712 -3.59141,4.70858 c -1.97527,2.58971 -5.87527,5.84301 -8.66666,7.22954 l -5.07527,2.52097 -77.33333,0.2874 -77.33333,0.28741 z m 111.2602,-56.51743 c -0.50572,-1.65 -7.0938,-22.2 -14.64016,-45.66667 C 698.36088,801.07397 661.64468,684.8595 654.08945,659.85734 l -3.46784,-11.47599 -16.97748,-0.76355 c -25.54564,-1.14891 -42.23178,-6.77929 -60.05639,-20.26475 -50.80239,-38.43528 -45.4892,-118.5617 9.74558,-146.96995 17.31298,-8.90438 23.91527,-9.71644 78.99699,-9.71644 62.64748,0 71.31697,2.19007 86.26893,21.7931 3.25623,4.26913 22.4223,55.32479 46.75186,124.54023 l 10.42798,29.66666 h 11.86697 11.86697 l -0.69477,-2.33333 c -0.38213,-1.28333 -3.15385,-11.33333 -6.15939,-22.33333 -3.00554,-11 -8.09586,-29.6 -11.31183,-41.33334 -3.21596,-11.73333 -10.69625,-39.53024 -16.62286,-61.77091 C 767.4087,416.38952 746.19296,373.41346 700.97278,328.98651 590.70811,220.65602 392.32702,227.85926 305.85328,343.33333 c -53.91599,71.99756 -68.23052,168.19464 -46.45703,312.20236 1.79087,11.84464 2.95211,23.24464 2.58053,25.33333 -1.52031,8.5458 -19.31012,117.53157 -19.31012,118.29963 0,0.45723 46.05,0.85767 102.33333,0.88986 79.59627,0.0455 103.3702,0.43697 107,1.76181 7.12579,2.60085 102.06719,58.97941 111.5128,66.21908 4.57062,3.50319 11.64656,7.61772 15.72431,9.1434 4.07775,1.52568 9.66757,4.19651 12.42182,5.93517 2.75426,1.73866 14.55466,8.64839 26.22312,15.35494 l 21.21538,12.19374 h 47.2078 47.2078 z"
         id="path6026" />
      <path
         style="fill:#453723"
         d="m 623.33332,964.78348 c -2.93333,-0.93763 -13.43333,-6.50154 -23.33333,-12.36424 -28.66177,-16.97327 -135.55117,-80.69019 -148,-88.22301 l -11.33333,-6.85782 -120.05081,-0.003 -120.05081,-0.003 -5.93843,-3 c -13.94441,-7.0445 -15.053,-13.5281 -8.83417,-51.66667 6.0109,-36.86335 15.23321,-91.37178 16.29869,-96.33333 l 0.78741,-3.66667 h -25.20018 -25.20019 l -7.2174,-3.66666 c -8.59565,-4.36687 -9.59781,-5.95566 -19.96806,-31.65692 C 40.109192,456.22733 63.835913,275.85665 193.88542,145.90088 315.79266,24.081508 501.93687,-13.305827 681.79981,47.902568 c 60.94137,20.738699 151.24088,72.879512 160.95,92.935872 6.13983,12.68321 8.92895,8.54669 -56.49804,83.79173 l -51.74821,59.51361 14.46523,15.04691 c 49.51255,51.50353 73.34102,101.64996 102.38936,215.47597 7.57943,29.7 19.82451,77.55106 27.2113,106.33569 21.35986,83.23448 22.3725,81.64413 -51.99413,81.65687 -59.8641,0.0103 -60.58348,-0.26732 -69.588,-26.8501 -24.97252,-73.72289 -50.82046,-147.29397 -52.00681,-148.02718 -2.50247,-1.54661 -82.46539,-1.34058 -89.79513,0.23136 -27.04501,5.80012 -29.76212,44.92725 -4.0439,58.23332 8.65434,4.47757 17.25289,5.72152 39.65954,5.73754 27.50641,0.0197 36.41795,2.8145 41.73028,13.08742 2.69537,5.21228 60.12272,182.03655 100.30837,308.85906 10.92259,34.47077 8.4971,45.87191 -10.90479,51.2585 -8.01149,2.22425 -151.52234,1.85718 -158.60156,-0.40566 z m 109.2602,-57.11683 c -0.50572,-1.65 -7.0938,-22.2 -14.64016,-45.66667 C 698.36088,801.07397 661.64468,684.8595 654.08945,659.85734 l -3.46784,-11.47599 -16.97748,-0.76355 c -25.54564,-1.14891 -42.23178,-6.77929 -60.05639,-20.26475 -50.80239,-38.43528 -45.4892,-118.5617 9.74558,-146.96995 17.31298,-8.90438 23.91527,-9.71644 78.99699,-9.71644 62.64748,0 71.31697,2.19007 86.26893,21.7931 3.25623,4.26913 22.4223,55.32479 46.75186,124.54023 l 10.42798,29.66666 h 11.86697 11.86697 l -0.69477,-2.33333 c -0.38213,-1.28333 -3.15385,-11.33333 -6.15939,-22.33333 -3.00554,-11 -8.09586,-29.6 -11.31183,-41.33334 -3.21596,-11.73333 -10.69625,-39.53024 -16.62286,-61.77091 C 767.4087,416.38952 746.19296,373.41346 700.97278,328.98651 590.70811,220.65602 392.32702,227.85926 305.85328,343.33333 c -53.91599,71.99756 -68.23052,168.19464 -46.45703,312.20236 1.79087,11.84464 2.95211,23.24464 2.58053,25.33333 -1.52031,8.5458 -19.31012,117.53157 -19.31012,118.29963 0,0.45723 46.05,0.85767 102.33333,0.88986 79.59627,0.0455 103.3702,0.43697 107,1.76181 7.12579,2.60085 102.06719,58.97941 111.5128,66.21908 4.57062,3.50319 11.64656,7.61772 15.72431,9.1434 4.07775,1.52568 9.66757,4.19651 12.42182,5.93517 2.75426,1.73866 14.55466,8.64839 26.22312,15.35494 l 21.21538,12.19374 h 47.2078 47.2078 z"
         id="path6025" />
      <path
         style="fill:#890808"
         d="m 623.33332,964.78348 c -2.93333,-0.93763 -13.43333,-6.50154 -23.33333,-12.36424 -28.66177,-16.97327 -135.55117,-80.69019 -148,-88.22301 l -11.33333,-6.85782 -120.05081,-0.003 -120.05081,-0.003 -5.93843,-3 c -13.94441,-7.0445 -15.053,-13.5281 -8.83417,-51.66667 6.0109,-36.86335 15.23321,-91.37178 16.29869,-96.33333 l 0.78741,-3.66667 h -25.20018 -25.20019 l -7.2174,-3.66666 c -8.59565,-4.36687 -9.59781,-5.95566 -19.96806,-31.65692 C 40.109192,456.22733 63.835913,275.85665 193.88542,145.90088 315.79266,24.081508 501.93687,-13.305827 681.79981,47.902568 c 60.94137,20.738699 151.24088,72.879512 160.95,92.935872 6.13983,12.68321 8.92895,8.54669 -56.49804,83.79173 l -51.74821,59.51361 14.46523,15.04691 c 49.51255,51.50353 73.34102,101.64996 102.38936,215.47597 7.57943,29.7 19.82451,77.55106 27.2113,106.33569 21.35986,83.23448 22.3725,81.64413 -51.99413,81.65687 -59.8641,0.0103 -60.58348,-0.26732 -69.588,-26.8501 -24.97252,-73.72289 -50.82046,-147.29397 -52.00681,-148.02718 -2.50247,-1.54661 -82.46539,-1.34058 -89.79513,0.23136 -27.04501,5.80012 -29.76212,44.92725 -4.0439,58.23332 8.65434,4.47757 17.25289,5.72152 39.65954,5.73754 27.50641,0.0197 36.41795,2.8145 41.73028,13.08742 2.69537,5.21228 60.12272,182.03655 100.30837,308.85906 10.92259,34.47077 8.4971,45.87191 -10.90479,51.2585 -8.01149,2.22425 -151.52234,1.85718 -158.60156,-0.40566 z m 110,-54.88705 c 0,-0.42362 -6.25905,-20.07362 -13.909,-43.66666 -7.64995,-23.59305 -24.10516,-75.29645 -36.56712,-114.89645 -12.46196,-39.6 -22.96929,-72.9 -23.34961,-74 -0.38033,-1.1 -2.5229,-8.05931 -4.76128,-15.46513 l -4.06978,-13.46512 -17.00494,-0.80376 c -19.24247,-0.90951 -28.89017,-3.06276 -42.33827,-9.44938 -76.48336,-36.32259 -67.43826,-148.58413 13.33333,-165.48414 11.18338,-2.33992 98.4318,-2.85966 110.0538,-0.6556 15.64695,2.96739 30.52571,13.25249 36.5558,25.2696 2.8395,5.65873 27.17356,71.99526 46.11762,125.7202 l 8.34515,23.66666 h 11.887 11.887 l -0.70058,-2.33333 C 827.18774,638.92207 799.49845,536.69396 791.46663,506.4536 770.68322,428.20258 751.90779,387.60784 717.46174,346.44611 615.71421,224.86163 405.20076,219.69706 311.21899,336.47967 c -58.36979,72.53082 -74.14814,168.97776 -52.05515,318.19287 1.79202,12.10324 3.01336,23.50324 2.7141,25.33333 -7.92358,48.45465 -19.21128,118.43494 -19.21128,119.10401 0,0.48956 45.50464,0.8901 101.12143,0.8901 117.07161,0 104.04375,-1.57481 134.2119,16.22361 11.73333,6.92236 33.6889,19.8565 48.79015,28.74253 15.10125,8.88603 31.40146,19.1421 36.22268,22.79127 4.82122,3.64917 12.11217,7.88687 16.20211,9.41712 4.08995,1.53024 9.98974,4.39558 13.11066,6.36741 3.12092,1.97183 14.92356,8.88155 26.22808,15.35494 l 20.55368,11.76979 h 47.11299 c 25.91214,0 47.11298,-0.3466 47.11298,-0.77022 z"
         id="path6024" />
      <path
         style="fill:#721313"
         d="m 623.33332,964.78348 c -2.93333,-0.93763 -13.43333,-6.50154 -23.33333,-12.36424 -28.66177,-16.97327 -135.55117,-80.69019 -148,-88.22301 l -11.33333,-6.85782 -120.05081,-0.003 -120.05081,-0.003 -5.93843,-3 c -13.94441,-7.0445 -15.053,-13.5281 -8.83417,-51.66667 6.0109,-36.86335 15.23321,-91.37178 16.29869,-96.33333 l 0.78741,-3.66667 h -25.20018 -25.20019 l -7.2174,-3.66666 c -8.59565,-4.36687 -9.59781,-5.95566 -19.96806,-31.65692 C 40.109192,456.22733 63.835913,275.85665 193.88542,145.90088 315.79266,24.081508 501.93687,-13.305827 681.79981,47.902568 c 60.94137,20.738699 151.24088,72.879512 160.95,92.935872 6.13983,12.68321 8.92895,8.54669 -56.49804,83.79173 l -51.74821,59.51361 14.46523,15.04691 c 49.51255,51.50353 73.34102,101.64996 102.38936,215.47597 7.57943,29.7 19.82451,77.55106 27.2113,106.33569 21.35986,83.23448 22.3725,81.64413 -51.99413,81.65687 -59.8641,0.0103 -60.58348,-0.26732 -69.588,-26.8501 -24.97252,-73.72289 -50.82046,-147.29397 -52.00681,-148.02718 -2.50247,-1.54661 -82.46539,-1.34058 -89.79513,0.23136 -27.04501,5.80012 -29.76212,44.92725 -4.0439,58.23332 8.65434,4.47757 17.25289,5.72152 39.65954,5.73754 27.50641,0.0197 36.41795,2.8145 41.73028,13.08742 2.69537,5.21228 60.12272,182.03655 100.30837,308.85906 10.92259,34.47077 8.4971,45.87191 -10.90479,51.2585 -8.01149,2.22425 -151.52234,1.85718 -158.60156,-0.40566 z m 110,-54.88705 c 0,-0.42362 -6.25905,-20.07362 -13.909,-43.66666 -7.64995,-23.59305 -24.10516,-75.29645 -36.56712,-114.89645 -12.46196,-39.6 -22.96929,-72.9 -23.34961,-74 -0.38033,-1.1 -2.5229,-8.05931 -4.76128,-15.46513 l -4.06978,-13.46512 -17.00494,-0.80376 c -19.24247,-0.90951 -28.89017,-3.06276 -42.33827,-9.44938 -76.48336,-36.32259 -67.43826,-148.58413 13.33333,-165.48414 11.18338,-2.33992 98.4318,-2.85966 110.0538,-0.6556 15.64695,2.96739 30.52571,13.25249 36.5558,25.2696 2.8395,5.65873 27.17356,71.99526 46.11762,125.7202 l 8.34515,23.66666 h 11.887 11.887 l -0.70058,-2.33333 C 827.18774,638.92207 799.49845,536.69396 791.46663,506.4536 770.68322,428.20258 751.90779,387.60784 717.46174,346.44611 615.71421,224.86163 405.20076,219.69706 311.21899,336.47967 c -58.36979,72.53082 -74.14814,168.97776 -52.05515,318.19287 1.79202,12.10324 3.01336,23.50324 2.7141,25.33333 -7.92358,48.45465 -19.21128,118.43494 -19.21128,119.10401 0,0.48956 45.50464,0.8901 101.12143,0.8901 117.07161,0 104.04375,-1.57481 134.2119,16.22361 11.73333,6.92236 33.6889,19.8565 48.79015,28.74253 15.10125,8.88603 31.40146,19.1421 36.22268,22.79127 4.82122,3.64917 12.11217,7.88687 16.20211,9.41712 4.08995,1.53024 9.98974,4.39558 13.11066,6.36741 3.12092,1.97183 14.92356,8.88155 26.22808,15.35494 l 20.55368,11.76979 h 47.11299 c 25.91214,0 47.11298,-0.3466 47.11298,-0.77022 z"
         id="path6023" />
      <path
         style="fill:#930000"
         d="m 623.33332,964.78348 c -2.93333,-0.93763 -13.43333,-6.50154 -23.33333,-12.36424 -28.66177,-16.97327 -135.55117,-80.69019 -148,-88.22301 l -11.33333,-6.85782 -120.05081,-0.003 -120.05081,-0.003 -5.93843,-3 c -13.94441,-7.0445 -15.053,-13.5281 -8.83417,-51.66667 6.0109,-36.86335 15.23321,-91.37178 16.29869,-96.33333 l 0.78741,-3.66667 h -25.20018 -25.20019 l -7.2174,-3.66666 c -8.59565,-4.36687 -9.59781,-5.95566 -19.96806,-31.65692 C 40.109192,456.22733 63.835913,275.85665 193.88542,145.90088 315.79266,24.081508 501.93687,-13.305827 681.79981,47.902568 c 60.94137,20.738699 151.24088,72.879512 160.95,92.935872 6.13983,12.68321 8.92895,8.54669 -56.49804,83.79173 l -51.74821,59.51361 14.46523,15.04691 c 49.51255,51.50353 73.34102,101.64996 102.38936,215.47597 7.57943,29.7 19.82451,77.55106 27.2113,106.33569 21.35986,83.23448 22.3725,81.64413 -51.99413,81.65687 -59.8641,0.0103 -60.58348,-0.26732 -69.588,-26.8501 -24.97252,-73.72289 -50.82046,-147.29397 -52.00681,-148.02718 -2.50247,-1.54661 -82.46539,-1.34058 -89.79513,0.23136 -27.04501,5.80012 -29.76212,44.92725 -4.0439,58.23332 8.65434,4.47757 17.25289,5.72152 39.65954,5.73754 27.50641,0.0197 36.41795,2.8145 41.73028,13.08742 2.69537,5.21228 60.12272,182.03655 100.30837,308.85906 10.92259,34.47077 8.4971,45.87191 -10.90479,51.2585 -8.01149,2.22425 -151.52234,1.85718 -158.60156,-0.40566 z m 110,-54.88705 c 0,-0.42362 -6.25905,-20.07362 -13.909,-43.66666 -7.64995,-23.59305 -24.10516,-75.29645 -36.56712,-114.89645 -12.46196,-39.6 -22.96929,-72.9 -23.34961,-74 -0.38033,-1.1 -2.5229,-8.05931 -4.76128,-15.46513 l -4.06978,-13.46512 -17.00494,-0.80376 c -19.24247,-0.90951 -28.89017,-3.06276 -42.33827,-9.44938 -76.48336,-36.32259 -67.43826,-148.58413 13.33333,-165.48414 11.18338,-2.33992 98.4318,-2.85966 110.0538,-0.6556 15.64695,2.96739 30.52571,13.25249 36.5558,25.2696 2.8395,5.65873 27.17356,71.99526 46.11762,125.7202 l 8.34515,23.66666 h 11.887 11.887 l -0.70058,-2.33333 C 827.18774,638.92207 799.49845,536.69396 791.46663,506.4536 770.68322,428.20258 751.90779,387.60784 717.46174,346.44611 615.71421,224.86163 405.20076,219.69706 311.21899,336.47967 c -58.36979,72.53082 -74.14814,168.97776 -52.05515,318.19287 1.79202,12.10324 3.01336,23.50324 2.7141,25.33333 -7.92358,48.45465 -19.21128,118.43494 -19.21128,119.10401 0,0.48956 45.50464,0.8901 101.12143,0.8901 117.07161,0 104.04375,-1.57481 134.2119,16.22361 11.73333,6.92236 33.6889,19.8565 48.79015,28.74253 15.10125,8.88603 31.40146,19.1421 36.22268,22.79127 4.82122,3.64917 12.11217,7.88687 16.20211,9.41712 4.08995,1.53024 9.98974,4.39558 13.11066,6.36741 3.12092,1.97183 14.92356,8.88155 26.22808,15.35494 l 20.55368,11.76979 h 47.11299 c 25.91214,0 47.11298,-0.3466 47.11298,-0.77022 z"
         id="path6022" />
      <path
         style="fill:#4f1919"
         d="m 623.33332,964.78348 c -2.93333,-0.93763 -13.43333,-6.50154 -23.33333,-12.36424 -28.66177,-16.97327 -135.55117,-80.69019 -148,-88.22301 l -11.33333,-6.85782 -120.05081,-0.003 -120.05081,-0.003 -5.93843,-3 c -13.94441,-7.0445 -15.053,-13.5281 -8.83417,-51.66667 6.0109,-36.86335 15.23321,-91.37178 16.29869,-96.33333 l 0.78741,-3.66667 h -25.20018 -25.20019 l -7.2174,-3.66666 c -8.59565,-4.36687 -9.59781,-5.95566 -19.96806,-31.65692 C 40.109192,456.22733 63.835913,275.85665 193.88542,145.90088 315.79266,24.081508 501.93687,-13.305827 681.79981,47.902568 c 60.94137,20.738699 151.24088,72.879512 160.95,92.935872 6.13983,12.68321 8.92895,8.54669 -56.49804,83.79173 l -51.74821,59.51361 14.46523,15.04691 c 49.51255,51.50353 73.34102,101.64996 102.38936,215.47597 7.57943,29.7 19.82451,77.55106 27.2113,106.33569 21.35986,83.23448 22.3725,81.64413 -51.99413,81.65687 -59.8641,0.0103 -60.58348,-0.26732 -69.588,-26.8501 -24.97252,-73.72289 -50.82046,-147.29397 -52.00681,-148.02718 -2.50247,-1.54661 -82.46539,-1.34058 -89.79513,0.23136 -27.04501,5.80012 -29.76212,44.92725 -4.0439,58.23332 8.65434,4.47757 17.25289,5.72152 39.65954,5.73754 27.50641,0.0197 36.41795,2.8145 41.73028,13.08742 2.69537,5.21228 60.12272,182.03655 100.30837,308.85906 10.92259,34.47077 8.4971,45.87191 -10.90479,51.2585 -8.01149,2.22425 -151.52234,1.85718 -158.60156,-0.40566 z m 110,-54.88705 c 0,-0.42362 -6.25905,-20.07362 -13.909,-43.66666 -7.64995,-23.59305 -24.10516,-75.29645 -36.56712,-114.89645 -12.46196,-39.6 -22.96929,-72.9 -23.34961,-74 -0.38033,-1.1 -2.5229,-8.05931 -4.76128,-15.46513 l -4.06978,-13.46512 -17.00494,-0.80376 c -19.24247,-0.90951 -28.89017,-3.06276 -42.33827,-9.44938 -76.48336,-36.32259 -67.43826,-148.58413 13.33333,-165.48414 11.18338,-2.33992 98.4318,-2.85966 110.0538,-0.6556 15.64695,2.96739 30.52571,13.25249 36.5558,25.2696 2.8395,5.65873 27.17356,71.99526 46.11762,125.7202 l 8.34515,23.66666 h 11.887 11.887 l -0.70058,-2.33333 C 827.18774,638.92207 799.49845,536.69396 791.46663,506.4536 770.68322,428.20258 751.90779,387.60784 717.46174,346.44611 615.71421,224.86163 405.20076,219.69706 311.21899,336.47967 c -58.36979,72.53082 -74.14814,168.97776 -52.05515,318.19287 1.79202,12.10324 3.01336,23.50324 2.7141,25.33333 -7.92358,48.45465 -19.21128,118.43494 -19.21128,119.10401 0,0.48956 45.50464,0.8901 101.12143,0.8901 117.07161,0 104.04375,-1.57481 134.2119,16.22361 11.73333,6.92236 33.6889,19.8565 48.79015,28.74253 15.10125,8.88603 31.40146,19.1421 36.22268,22.79127 4.82122,3.64917 12.11217,7.88687 16.20211,9.41712 4.08995,1.53024 9.98974,4.39558 13.11066,6.36741 3.12092,1.97183 14.92356,8.88155 26.22808,15.35494 l 20.55368,11.76979 h 47.11299 c 25.91214,0 47.11298,-0.3466 47.11298,-0.77022 z M 203.41507,643.18429 c -7.07082,-28.17238 -10.73012,-101.19613 -7.34215,-146.51763 11.42777,-152.87191 92.57637,-257.73164 225.99372,-292.02774 83.22163,-21.39286 183.76925,-6.52666 259.69479,38.39646 l 9.09477,5.38113 3.05942,-3.20826 c 12.57937,-13.19131 76.73059,-89.49598 76.09969,-90.51678 -3.33513,-5.39636 -53.88086,-32.95489 -80.54689,-43.91577 -272.3603,-111.9516832 -558.96123,53.14117 -558.788,321.88279 0.0392,60.73173 16.45487,141.76877 42.70348,210.80784 l 1.21676,3.20032 h 14.84421 14.84421 z"
         id="path6021" />
      <path
         style="fill:#272727"
         d="m 623.33332,964.78348 c -2.93333,-0.93763 -13.43333,-6.50154 -23.33333,-12.36424 -28.66177,-16.97327 -135.55117,-80.69019 -148,-88.22301 l -11.33333,-6.85782 -120.05081,-0.003 -120.05081,-0.003 -5.93843,-3 c -13.94441,-7.0445 -15.053,-13.5281 -8.83417,-51.66667 6.0109,-36.86335 15.23321,-91.37178 16.29869,-96.33333 l 0.78741,-3.66667 h -25.20018 -25.20019 l -7.2174,-3.66666 c -8.59565,-4.36687 -9.59781,-5.95566 -19.96806,-31.65692 C 40.109192,456.22733 63.835913,275.85665 193.88542,145.90088 315.79266,24.081508 501.93687,-13.305827 681.79981,47.902568 c 60.94137,20.738699 151.24088,72.879512 160.95,92.935872 6.13983,12.68321 8.92895,8.54669 -56.49804,83.79173 l -51.74821,59.51361 14.46523,15.04691 c 49.51255,51.50353 73.34102,101.64996 102.38936,215.47597 7.57943,29.7 19.82451,77.55106 27.2113,106.33569 21.35986,83.23448 22.3725,81.64413 -51.99413,81.65687 -59.8641,0.0103 -60.58348,-0.26732 -69.588,-26.8501 -24.97252,-73.72289 -50.82046,-147.29397 -52.00681,-148.02718 -2.50247,-1.54661 -82.46539,-1.34058 -89.79513,0.23136 -27.04501,5.80012 -29.76212,44.92725 -4.0439,58.23332 8.65434,4.47757 17.25289,5.72152 39.65954,5.73754 27.50641,0.0197 36.41795,2.8145 41.73028,13.08742 2.69537,5.21228 60.12272,182.03655 100.30837,308.85906 10.92259,34.47077 8.4971,45.87191 -10.90479,51.2585 -8.01149,2.22425 -151.52234,1.85718 -158.60156,-0.40566 z m 110,-54.88705 c 0,-0.42362 -6.25905,-20.07362 -13.909,-43.66666 -7.64995,-23.59305 -24.10516,-75.29645 -36.56712,-114.89645 -12.46196,-39.6 -22.96929,-72.9 -23.34961,-74 -0.38033,-1.1 -2.5229,-8.05931 -4.76128,-15.46513 l -4.06978,-13.46512 -17.00494,-0.80376 c -19.24247,-0.90951 -28.89017,-3.06276 -42.33827,-9.44938 -76.48336,-36.32259 -67.43826,-148.58413 13.33333,-165.48414 11.18338,-2.33992 98.4318,-2.85966 110.0538,-0.6556 15.64695,2.96739 30.52571,13.25249 36.5558,25.2696 2.8395,5.65873 27.17356,71.99526 46.11762,125.7202 l 8.34515,23.66666 h 11.887 11.887 l -0.70058,-2.33333 C 827.18774,638.92207 799.49845,536.69396 791.46663,506.4536 770.68322,428.20258 751.90779,387.60784 717.46174,346.44611 615.71421,224.86163 405.20076,219.69706 311.21899,336.47967 c -58.36979,72.53082 -74.14814,168.97776 -52.05515,318.19287 1.79202,12.10324 3.01336,23.50324 2.7141,25.33333 -7.92358,48.45465 -19.21128,118.43494 -19.21128,119.10401 0,0.48956 45.50464,0.8901 101.12143,0.8901 117.07161,0 104.04375,-1.57481 134.2119,16.22361 11.73333,6.92236 33.6889,19.8565 48.79015,28.74253 15.10125,8.88603 31.40146,19.1421 36.22268,22.79127 4.82122,3.64917 12.11217,7.88687 16.20211,9.41712 4.08995,1.53024 9.98974,4.39558 13.11066,6.36741 3.12092,1.97183 14.92356,8.88155 26.22808,15.35494 l 20.55368,11.76979 h 47.11299 c 25.91214,0 47.11298,-0.3466 47.11298,-0.77022 z M 203.99574,645.66665 c -0.002,-0.55 -0.88746,-6.1 -1.96693,-12.33333 -16.09932,-92.9648 -6.13622,-196.20218 25.83968,-267.75035 73.46731,-164.38789 279.2482,-220.04158 453.70687,-122.70559 l 10.24204,5.71435 2.79251,-3.55009 c 1.53588,-1.95256 19.39474,-22.86826 39.68637,-46.47934 l 36.89386,-42.92925 -3.92841,-3.16209 C 740.20314,130.69074 674.75921,101.74786 623.33332,88.817979 551.81199,70.83555 464.2876,71.823062 394.3758,91.401241 296.06602,118.93202 211.76242,187.20288 167.24908,275.33333 c -42.46933,84.08356 -48.09004,181.13823 -17.06499,294.66666 4.23806,15.50809 22.55735,73.15016 24.04772,75.66666 0.32573,0.55 7.15682,1 15.18021,1 8.02339,0 14.58606,-0.45 14.58372,-1 z"
         id="path6020" />
      <path
         style="fill:#2d2b18"
         d="m 627.33332,965.43986 c -8.14137,-1.44266 -1.81386,2.20104 -160.73814,-92.56088 L 440.5237,857.33332 H 320.47156 200.41942 l -5.87638,-3.09932 c -6.71103,-3.53952 -11.38807,-9.67247 -12.74803,-16.71635 -0.75781,-3.92509 14.8262,-104.02143 20.40827,-131.08261 l 0.73537,-3.56495 -26.46933,-0.43505 L 150,701.99999 144.39085,699.00223 C 135.49636,694.24866 124.58796,670.26834 106.4584,615.61401 34.091678,397.45346 90.278176,205.16055 259.33333,92.414239 414.27461,-10.919252 635.79302,-4.3465308 803.3269,108.55519 c 51.32026,34.58491 51.81486,36.51219 19.03574,74.1739 -11.19946,12.86767 -31.24701,35.96767 -44.55011,51.33333 -13.3031,15.36567 -28.52177,32.89767 -33.81928,38.96001 l -9.63182,11.02243 13.88661,14.37352 c 48.119,49.80619 74.58266,104.12549 100.48149,206.24828 6.13724,24.2 14.78922,58.1 19.22662,75.33333 22.54646,87.56257 24.32992,95.2154 23.70522,101.71915 -0.83555,8.69902 -6.4011,15.53651 -15.10398,18.55582 l -6.55741,2.27497 -43.42466,0.0584 c -62.50313,0.084 -59.81431,1.43626 -72.92112,-36.67327 -4.52752,-13.16427 -16.96658,-49.4087 -27.64234,-80.54318 -10.67577,-31.13448 -20.1458,-57.07529 -21.04451,-57.64625 -2.1935,-1.39353 -82.76307,-1.26001 -90.05377,0.14924 -12.79249,2.47271 -21.58917,14.45885 -21.56775,29.38768 l 0.0125,8.71748 3.94555,6.87934 c 4.28882,7.47786 8.44598,10.98498 18.30411,15.44192 l 6.39198,2.88987 27.33333,0.72777 27.33333,0.72776 6.2173,3.65487 c 8.98948,5.28452 9.90954,7.35062 27.76305,62.34513 8.92764,27.5 20.33741,62.6 25.35504,78 5.01763,15.4 15.51468,48.1 23.32678,72.66667 7.81211,24.56666 17.70532,55.46666 21.98492,68.66666 23.0959,71.23695 23.36786,74.66511 6.70057,84.46408 l -6.01433,3.53592 -74.66666,0.19248 c -41.06667,0.10586 -77.06667,-0.23281 -80,-0.7526 z m 106,-55.54343 c 0,-0.42362 -6.25905,-20.07362 -13.909,-43.66666 -7.64995,-23.59305 -24.10516,-75.29645 -36.56712,-114.89645 -12.46196,-39.6 -22.96929,-72.9 -23.34961,-74 -0.38033,-1.1 -2.5229,-8.05931 -4.76128,-15.46513 l -4.06978,-13.46512 -17.00494,-0.80376 c -19.24247,-0.90951 -28.89017,-3.06276 -42.33827,-9.44938 -76.48336,-36.32259 -67.43826,-148.58413 13.33333,-165.48414 11.18338,-2.33992 98.4318,-2.85966 110.0538,-0.6556 15.64695,2.96739 30.52571,13.25249 36.5558,25.2696 2.8395,5.65873 27.17356,71.99526 46.11762,125.7202 l 8.34515,23.66666 h 11.887 11.887 l -0.70058,-2.33333 C 827.18774,638.92207 799.49845,536.69396 791.46663,506.4536 770.67097,428.15647 751.89778,387.56297 717.46831,346.44611 615.65434,224.85634 405.20371,219.6934 311.21899,336.47967 c -58.36979,72.53082 -74.14814,168.97776 -52.05515,318.19287 1.79202,12.10324 3.01336,23.50324 2.7141,25.33333 -7.92358,48.45465 -19.21128,118.43494 -19.21128,119.10401 0,0.48956 45.50464,0.8901 101.12143,0.8901 117.07161,0 104.04375,-1.57481 134.2119,16.22361 11.73333,6.92236 33.6889,19.8565 48.79015,28.74253 15.10125,8.88603 31.40146,19.1421 36.22268,22.79127 4.82122,3.64917 12.11217,7.88687 16.20211,9.41712 4.08995,1.53024 9.98974,4.39558 13.11066,6.36741 3.12092,1.97183 14.92356,8.88155 26.22808,15.35494 l 20.55368,11.76979 h 47.11299 c 25.91214,0 47.11298,-0.3466 47.11298,-0.77022 z M 203.99574,645.66665 c -0.002,-0.55 -0.88746,-6.1 -1.96693,-12.33333 -16.09932,-92.9648 -6.13622,-196.20218 25.83968,-267.75035 73.46731,-164.38789 279.2482,-220.04158 453.70687,-122.70559 l 10.24204,5.71435 2.79251,-3.55009 c 1.53588,-1.95256 19.39474,-22.86826 39.68637,-46.47934 l 36.89386,-42.92925 -3.92841,-3.16209 C 740.20314,130.69074 674.75921,101.74786 623.33332,88.817979 551.81199,70.83555 464.2876,71.823062 394.3758,91.401241 296.06602,118.93202 211.76242,187.20288 167.24908,275.33333 c -42.46933,84.08356 -48.09004,181.13823 -17.06499,294.66666 4.23806,15.50809 22.55735,73.15016 24.04772,75.66666 0.32573,0.55 7.15682,1 15.18021,1 8.02339,0 14.58606,-0.45 14.58372,-1 z"
         id="path6019" />
      <path
         style="fill:#2c1514"
         d="m 627.33332,965.43986 c -8.14137,-1.44266 -1.81386,2.20104 -160.73814,-92.56088 L 440.5237,857.33332 H 320.47156 200.41942 l -5.87638,-3.09932 c -6.71103,-3.53952 -11.38807,-9.67247 -12.74803,-16.71635 -0.75781,-3.92509 14.8262,-104.02143 20.40827,-131.08261 l 0.73537,-3.56495 -26.46933,-0.43505 L 150,701.99999 144.39085,699.00223 C 135.49636,694.24866 124.58796,670.26834 106.4584,615.61401 34.091678,397.45346 90.278176,205.16055 259.33333,92.414239 414.27461,-10.919252 635.79302,-4.3465308 803.3269,108.55519 c 51.32026,34.58491 51.81486,36.51219 19.03574,74.1739 -11.19946,12.86767 -31.24701,35.96767 -44.55011,51.33333 -13.3031,15.36567 -28.52177,32.89767 -33.81928,38.96001 l -9.63182,11.02243 13.88661,14.37352 c 48.119,49.80619 74.58266,104.12549 100.48149,206.24828 6.13724,24.2 14.78922,58.1 19.22662,75.33333 22.54646,87.56257 24.32992,95.2154 23.70522,101.71915 -0.83555,8.69902 -6.4011,15.53651 -15.10398,18.55582 l -6.55741,2.27497 -43.42466,0.0584 c -62.50313,0.084 -59.81431,1.43626 -72.92112,-36.67327 -4.52752,-13.16427 -16.96658,-49.4087 -27.64234,-80.54318 -10.67577,-31.13448 -20.1458,-57.07529 -21.04451,-57.64625 -2.1935,-1.39353 -82.76307,-1.26001 -90.05377,0.14924 -12.79249,2.47271 -21.58917,14.45885 -21.56775,29.38768 l 0.0125,8.71748 3.94555,6.87934 c 4.28882,7.47786 8.44598,10.98498 18.30411,15.44192 l 6.39198,2.88987 27.33333,0.72777 27.33333,0.72776 6.2173,3.65487 c 8.98948,5.28452 9.90954,7.35062 27.76305,62.34513 8.92764,27.5 20.33741,62.6 25.35504,78 5.01763,15.4 15.51468,48.1 23.32678,72.66667 7.81211,24.56666 17.70532,55.46666 21.98492,68.66666 23.0959,71.23695 23.36786,74.66511 6.70057,84.46408 l -6.01433,3.53592 -74.66666,0.19248 c -41.06667,0.10586 -77.06667,-0.23281 -80,-0.7526 z m 106,-55.53065 c 0,-0.41659 -5.1653,-16.76659 -11.47845,-36.33333 -10.56603,-32.74798 -55.1334,-173.61102 -66.34731,-209.70237 l -4.80351,-15.45981 -17.0187,-0.83915 c -76.3006,-3.76215 -119.12905,-75.16026 -82.42188,-137.4032 18.82058,-31.91333 40.07244,-39.51712 110.34697,-39.48154 75.84285,0.0384 81.55087,2.92393 98.86205,49.97685 12.75729,34.67516 41.3987,115.13545 44.25887,124.33333 0.50413,1.62122 24.60196,2.59847 24.60196,0.99769 0,-0.36793 -4.74743,-17.91793 -10.54983,-39 C 812.98108,585.91562 803.93407,552.46666 798.679,532.66666 769.57563,423.01109 754.01065,388.27042 712.69944,340.76223 636.64326,253.2971 493.92942,226.30131 384.66666,278.71147 295.12797,321.66058 249.96575,410.46591 250.09243,543.33332 l 0.0407,42.66667 2.97271,24.66666 c 1.63499,13.56667 4.15504,32.02971 5.60011,41.02897 1.44508,8.99927 2.62741,19.99784 2.62741,24.44128 0,7.41879 -17.88254,120.18231 -19.46513,122.743 -0.38074,0.61604 44.79316,1.13475 100.38644,1.15268 61.00359,0.0197 103.31928,0.5496 106.72998,1.33659 6.48684,1.4968 102.79396,57.68336 113.01537,65.93432 3.66666,2.95982 10.56666,7.05804 15.33333,9.10716 4.76667,2.04911 9.86667,4.4132 11.33333,5.25354 1.46667,0.84033 13.16667,7.68657 26,15.21386 l 23.33334,13.68598 47.66666,0.0513 c 26.21667,0.0282 47.66667,-0.28954 47.66667,-0.70613 z M 203.99574,645.66665 c -0.002,-0.55 -0.88746,-6.1 -1.96693,-12.33333 -16.09932,-92.9648 -6.13622,-196.20218 25.83968,-267.75035 73.46731,-164.38789 279.2482,-220.04158 453.70687,-122.70559 l 10.24204,5.71435 2.79251,-3.55009 c 1.53588,-1.95256 19.39474,-22.86826 39.68637,-46.47934 l 36.89386,-42.92925 -3.92841,-3.16209 C 740.20314,130.69074 674.75921,101.74786 623.33332,88.817979 551.81199,70.83555 464.2876,71.823062 394.3758,91.401241 296.06602,118.93202 211.76242,187.20288 167.24908,275.33333 c -42.46933,84.08356 -48.09004,181.13823 -17.06499,294.66666 4.23806,15.50809 22.55735,73.15016 24.04772,75.66666 0.32573,0.55 7.15682,1 15.18021,1 8.02339,0 14.58606,-0.45 14.58372,-1 z"
         id="path6018" />
      <path
         style="fill:#181715"
         d="m 627.33332,965.43986 c -8.14137,-1.44266 -1.81386,2.20104 -160.73814,-92.56088 L 440.5237,857.33332 H 320.47156 200.41942 l -5.87638,-3.09932 c -6.71103,-3.53952 -11.38807,-9.67247 -12.74803,-16.71635 -0.75781,-3.92509 14.8262,-104.02143 20.40827,-131.08261 l 0.73537,-3.56495 -26.46933,-0.43505 L 150,701.99999 144.39085,699.00223 C 135.49636,694.24866 124.58796,670.26834 106.4584,615.61401 34.091678,397.45346 90.278176,205.16055 259.33333,92.414239 414.27461,-10.919252 635.79302,-4.3465308 803.3269,108.55519 c 51.32026,34.58491 51.81486,36.51219 19.03574,74.1739 -11.19946,12.86767 -31.24701,35.96767 -44.55011,51.33333 -13.3031,15.36567 -28.52177,32.89767 -33.81928,38.96001 l -9.63182,11.02243 13.88661,14.37352 c 48.119,49.80619 74.58266,104.12549 100.48149,206.24828 6.13724,24.2 14.78922,58.1 19.22662,75.33333 22.54646,87.56257 24.32992,95.2154 23.70522,101.71915 -0.83555,8.69902 -6.4011,15.53651 -15.10398,18.55582 l -6.55741,2.27497 -43.42466,0.0584 c -62.50313,0.084 -59.81431,1.43626 -72.92112,-36.67327 -4.52752,-13.16427 -16.96658,-49.4087 -27.64234,-80.54318 -10.67577,-31.13448 -20.1458,-57.07529 -21.04451,-57.64625 -2.1935,-1.39353 -82.76307,-1.26001 -90.05377,0.14924 -12.79249,2.47271 -21.58917,14.45885 -21.56775,29.38768 l 0.0125,8.71748 3.94555,6.87934 c 4.28882,7.47786 8.44598,10.98498 18.30411,15.44192 l 6.39198,2.88987 27.33333,0.72777 27.33333,0.72776 6.2173,3.65487 c 8.98948,5.28452 9.90954,7.35062 27.76305,62.34513 8.92764,27.5 20.33741,62.6 25.35504,78 5.01763,15.4 15.51468,48.1 23.32678,72.66667 7.81211,24.56666 17.70532,55.46666 21.98492,68.66666 23.0959,71.23695 23.36786,74.66511 6.70057,84.46408 l -6.01433,3.53592 -74.66666,0.19248 c -41.06667,0.10586 -77.06667,-0.23281 -80,-0.7526 z m 106,-55.75041 c 0,-0.53746 -2.64964,-9.08746 -5.88809,-19 -14.4281,-44.16281 -44.88598,-140.18397 -71.31172,-224.81648 l -5.45183,-17.46034 -17.00752,-0.83861 c -26.09538,-1.28671 -40.82235,-6.21196 -59.30578,-19.83407 -51.88637,-38.23974 -46.20428,-120.3022 10.23137,-147.76461 17.31519,-8.42583 24.66507,-9.31204 77.01069,-9.28553 77.44242,0.0392 81.32047,2.16678 100.81744,55.31018 7.8761,21.4681 40.73641,113.89314 42.30864,119 0.49913,1.62128 24.5968,2.59873 24.5968,0.99769 0,-0.36793 -4.74743,-17.91793 -10.54983,-39 C 812.98108,585.91562 803.93407,552.46666 798.679,532.66666 769.57563,423.01109 754.01065,388.27042 712.69944,340.76223 635.43614,251.9089 484.15909,225.08907 378.66666,281.54174 291.80321,328.02539 249.96836,413.20585 250.09243,543.33332 l 0.0407,42.66667 2.98797,24.66666 c 1.64338,13.56667 4.16343,32.2766 5.60011,41.57763 1.43668,9.30103 2.61215,20.2996 2.61215,24.44128 0,7.04246 -17.95373,119.74884 -19.46513,122.19434 -0.38074,0.61604 44.79316,1.13475 100.38644,1.15268 61.00359,0.0197 103.31928,0.5496 106.72998,1.33659 6.30478,1.45479 102.76582,57.59273 112.3487,65.38417 7.04107,5.72479 11.77823,8.48023 20,11.63331 3.3,1.26556 13.2,6.55506 22,11.75445 8.8,5.19939 20.2,11.92068 25.33333,14.93621 l 9.33334,5.48278 47.66666,0.0533 c 26.21667,0.0293 47.66667,-0.38646 47.66667,-0.92392 z M 203.97543,644.99999 c -0.0135,-0.91667 -0.87794,-6.48965 -1.92095,-12.38441 -9.08545,-51.3479 -9.347,-125.31273 -0.62691,-177.28226 22.27755,-132.76844 103.38421,-222.71674 227.23909,-252.01099 82.86373,-19.59899 187.99113,-1.85365 259.60396,43.82073 l 3.0627,1.95339 39.33333,-45.94575 c 21.63333,-25.27015 39.33333,-46.66685 39.33333,-47.54822 0,-1.939 -16.47436,-13.01671 -34.66666,-23.31058 C 626.85611,70.911484 478.86864,58.242975 365.99999,100.67501 201.28803,162.59712 109.39309,317.29666 133.94035,491.33332 c 6.35895,45.08411 30.91169,139.19829 40.2608,154.32547 1.13674,1.83928 29.80175,1.20503 29.77428,-0.6588 z"
         id="path6017" />
      <path
         style="fill:#14130c"
         d="m 630.66665,965.39722 c -9.76458,-0.90896 -12.09159,-1.99785 -39.92651,-18.68292 -10.67375,-6.39816 -35.90682,-21.43094 -56.07348,-33.40618 -20.16667,-11.97523 -49.56303,-29.46852 -65.32524,-38.87398 l -28.65858,-17.10082 -118.67475,-0.007 c -77.53788,-0.005 -120.39398,-0.48491 -123.63448,-1.38488 -6.81433,-1.89253 -13.71857,-8.77863 -15.81396,-15.77242 l -1.73647,-5.79581 2.40616,-14.85306 c 4.2562,-26.27318 13.8988,-83.81965 16.1172,-96.18639 1.18393,-6.6 2.48483,-13.89472 2.89088,-16.21049 l 0.73829,-4.21049 L 176.48785,702.4566 150,701.99999 l -5.67858,-3.25222 c -7.10993,-4.07198 -7.95326,-5.38776 -16.39497,-25.58006 C 39.652537,462.01928 63.123723,275.99652 194.52841,145.30856 348.57203,-7.8948502 605.70725,-23.29714 803.5139,108.83059 c 41.11493,27.46329 49.1474,39.53281 35.96014,54.03334 -1.56862,1.72484 -14.77096,16.93607 -29.33853,33.80273 -14.56756,16.86667 -36.15751,41.75319 -47.97767,55.30339 -11.82015,13.55019 -22.90026,26.307 -24.62245,28.34847 l -3.13126,3.71175 14.11122,14.7262 c 49.64058,51.80396 74.16464,103.23555 102.3164,214.57685 6.58232,26.03334 13.39494,52.73333 15.13915,59.33333 13.58992,51.42352 26.02538,102.49543 26.00715,106.81025 -0.0314,7.4215 -4.90612,15.20349 -12.01837,19.18597 l -5.9597,3.33712 h -48 -48 l -5.55438,-2.96982 c -8.64361,-4.62156 -10.20778,-7.93592 -27.05248,-57.32215 -30.95964,-90.76917 -38.82796,-112.94707 -40.43349,-113.9672 -2.27435,-1.44508 -84.4809,-1.2763 -90.78517,0.18639 -17.74272,4.1166 -26.72868,26.88846 -17.38727,44.06213 8.57342,15.76176 20.34847,20.10485 55.72067,20.55189 34.11899,0.43121 37.20217,2.3851 45.94032,29.11363 27.9701,85.55576 51.109,157.22321 88.5764,274.34512 16.01943,50.07621 16.25602,52.8153 5.42777,62.83708 -8.02619,7.42842 -4.94865,7.15505 -81.7857,7.26492 -39.23333,0.0561 -75.23333,-0.26105 -80,-0.70476 z M 733.33332,909.7839 c 0,-0.80198 -9.44923,-30.50316 -26.65529,-83.78392 -3.55225,-11 -12.84742,-40.4 -20.65594,-65.33333 -7.80852,-24.93333 -16.51344,-52.53333 -19.34427,-61.33333 -2.83083,-8.8 -7.5807,-23.85799 -10.55525,-33.46219 l -5.40828,-17.46219 -16.35715,-0.89257 C 603.69679,645.8433 582.22655,637.28151 565.3196,619.98595 517.744,571.3168 536.63642,491.67006 599.99999,473.78024 l 8.66666,-2.44692 h 52 c 80.68704,0 82.0217,0.74668 102.73435,57.47496 7.9776,21.84926 38.75875,108.44432 41.30159,116.19171 0.60445,1.84159 24.63073,2.48331 24.63073,0.65786 0,-0.55484 -0.61023,-3.10484 -1.35606,-5.66667 -3.8083,-13.08099 -22.51059,-81.80689 -32.61631,-119.85621 C 768.75689,419.9673 749.50333,379.56529 706.80036,334.29789 597.96754,218.92937 389.03845,225.79554 302.29184,347.59152 266.69082,397.57688 251.18298,452.7594 249.71848,534.66666 l -0.63177,35.33333 2.85743,28 c 1.57158,15.4 4.32707,37.77061 6.12331,49.71247 1.79623,11.94186 3.26588,24.98062 3.26588,28.97503 0,6.75758 -18.00397,119.82821 -19.45339,122.17341 -0.36069,0.58361 46.31876,1.22866 103.73212,1.43343 l 104.38793,0.37232 5.62573,3.00622 c 3.09416,1.65342 17.49416,9.9913 32,18.52864 14.50585,8.53733 35.67427,20.95427 47.04094,27.59319 11.36666,6.63892 23.36666,14.30806 26.66666,17.04254 5.63004,4.66523 18.28509,11.82941 20.89586,11.82941 0.64639,0 13.45925,7.18525 28.47303,15.96723 l 27.29778,15.96722 47.66666,0.0328 c 26.21667,0.018 47.66667,-0.36447 47.66667,-0.84998 z M 203.97543,644.99999 c -0.0135,-0.91667 -0.87794,-6.48965 -1.92095,-12.38441 -11.38657,-64.35311 -8.92622,-149.37683 6.05545,-209.26163 27.93868,-111.67661 104.07322,-189.79739 212.37748,-217.9181 85.61823,-22.23038 188.40158,-6.61325 265.51258,40.34257 l 5.33333,3.24767 39.33333,-45.91056 c 21.63333,-25.25081 39.33333,-46.63168 39.33333,-47.51305 0,-7.24577 -65.10541,-40.7343 -107.83815,-55.46913 C 576.41288,70.565942 471.89632,67.698612 389.49908,92.65306 217.80831,144.65053 116.52844,294.38985 132.01663,473.33332 c 3.83984,44.36389 30.53399,153.47452 42.14357,172.25922 1.16426,1.88381 29.84333,1.31384 29.81523,-0.59255 z"
         id="path6016" />
      <path
         style="fill:#140b0a"
         d="m 635.33332,965.33331 c -9.5174,-0.47587 -14.66891,-1.3857 -18,-3.17905 -6.58796,-3.54674 -89.49518,-52.73952 -147.8477,-87.72503 l -28.51437,-17.09591 -118.81896,-0.007 c -77.63709,-0.005 -120.53797,-0.48485 -123.77868,-1.38488 -6.81433,-1.89253 -13.71857,-8.77863 -15.81396,-15.77242 l -1.73647,-5.79581 2.4065,-14.85306 c 4.31745,-26.64757 15.97747,-95.66502 18.98549,-112.37799 l 0.7544,-4.19159 L 176.48479,702.4755 150,701.99999 143.76385,698.33407 C 135.89845,693.7104 129.16151,679.5561 112.19116,631.99999 28.752039,398.17805 90.375321,193.24813 277.77037,81.361749 424.01879,-5.9575615 622.53165,-0.73157929 781.18119,94.614371 c 58.36753,35.077989 72.89884,52.052129 58.37868,68.192599 -1.59127,1.76884 -6.79256,7.71089 -11.55842,13.20455 -4.76586,5.49366 -8.97598,10.28848 -9.35582,10.65514 -0.37984,0.36667 -9.96187,11.46667 -21.29341,24.66667 -17.74326,20.66895 -52.21447,60.3788 -60.43641,69.621 l -2.6282,2.95434 13.90227,14.50815 c 51.23149,53.4642 74.06333,102.28416 105.18763,224.9165 8.00321,31.53334 19.95599,78.33333 26.56172,104 15.0053,58.30329 15.00932,63.02857 0.0608,71.33333 l -6,3.33334 h -48 -48 l -5.55438,-2.96982 c -6.46802,-3.45832 -10.48286,-8.59909 -12.98858,-16.63113 -1.64877,-5.28509 -14.74166,-43.36504 -42.0677,-122.35155 -5.95298,-17.20721 -11.55089,-31.74802 -12.4398,-32.31292 -2.37219,-1.5075 -86.12261,-1.28313 -91.6162,0.24545 -30.02926,8.35558 -26.03076,51.43216 5.72444,61.67035 l 8.27556,2.66812 24.71168,0.32408 c 34.93156,0.4581 37.46274,2.0692 46.48586,29.58824 21.95627,66.96305 28.08382,85.76483 39.90215,122.43584 12.40555,38.49311 36.26358,112.79642 48.59157,151.33333 16.01943,50.07621 16.25602,52.8153 5.42777,62.83708 -8.01108,7.41444 -5.30307,7.16292 -77.11903,7.16292 -36.66667,0 -72.66667,-0.3 -80,-0.66667 z m 94.51435,-67.66666 c -7.89259,-23.45079 -64.71982,-202.7573 -75.53448,-238.33333 -3.67343,-12.08418 -1.9759,-11.0777 -20.31367,-12.04416 -25.8156,-1.36056 -41.4157,-6.19166 -56.85387,-17.60671 -61.46956,-45.45088 -46.2869,-138.56342 25.521,-156.51576 10.39652,-2.59918 105.36945,-2.57036 116,0.0352 16.87018,4.1349 29.45875,15.3731 35.87738,32.02882 4.97793,12.91725 38.22941,105.26634 45.16483,125.43594 l 5.27244,15.33334 12.17601,0.38336 c 6.6968,0.21086 12.17601,-0.0326 12.17601,-0.54091 0,-0.50836 -5.35927,-20.48087 -11.90949,-44.38337 -6.55022,-23.90249 -17.03325,-62.65908 -23.29562,-86.12575 C 771.00568,428.68745 755.41486,393.40489 721.53856,351.06049 631.83544,238.93421 449.50754,217.75617 340.50372,306.80193 c -80.00957,65.36023 -107.32232,181.00796 -81.7989,346.35314 1.43015,9.2647 2.60662,19.7577 2.61439,23.31776 0.0121,5.56283 -12.82118,88.12353 -17.79072,114.45315 l -1.68471,8.926 103.41144,0.40734 103.41144,0.40733 5.07596,2.29704 c 8.82332,3.99283 103.95422,60.98718 110.92404,66.45625 3.66666,2.87715 10.32931,6.6498 14.80588,8.38365 7.19672,2.78741 15.01184,7.14765 49.7766,27.77157 l 8.58248,5.09149 h 48.19567 48.19566 z M 202.11032,633.03036 C 175.44554,475.41507 216.77587,332.2795 309.99999,259.38588 c 102.07461,-79.81397 258.19582,-85.4235 376,-13.50991 l 5.33333,3.25574 39.33333,-45.97779 c 21.63333,-25.28778 39.33333,-46.69242 39.33333,-47.56586 0,-2.20357 -19.1715,-14.82467 -38.67296,-25.45942 -44.52459,-24.28062 -96.71615,-41.592655 -149.9937,-49.753165 l -23.33333,-3.573962 -44.66667,-0.06742 C 398.42499,76.560636 311.05291,109.86129 235.62535,182.57862 122.66548,291.47966 101.00165,443.89954 170.9899,637.33332 l 3.13577,8.66667 14.60383,0.66666 c 17.11893,0.78148 16.01098,1.91058 13.38082,-13.63629 z"
         id="path6015" />
      <path
         style="fill:#0a0a0a"
         d="m 635.33332,965.33331 c -9.51094,-0.47554 -14.67117,-1.38634 -18,-3.17705 -6.12337,-3.29401 -93.05602,-54.87644 -147.8477,-87.72703 l -28.51437,-17.09591 -118.81896,-0.007 c -77.63709,-0.005 -120.53797,-0.48485 -123.77868,-1.38488 -6.81433,-1.89253 -13.71857,-8.77863 -15.81396,-15.77242 l -1.73647,-5.79581 2.40802,-14.85306 c 4.16764,-25.70676 15.57264,-93.19362 18.99141,-112.37799 l 0.74696,-4.19159 L 176.48479,702.4755 150,701.99999 l -6.23615,-3.66592 c -7.02052,-4.12701 -8.53172,-6.79089 -19.47757,-34.33408 C 94.536998,589.14141 79.704649,525.86651 76.000842,458.01397 57.621954,121.31872 417.89861,-85.964832 743.33332,74.067227 c 46.50729,22.869895 97.55373,58.014753 100.15749,68.957223 1.82702,7.67822 0.40984,14.96583 -3.82471,19.66796 -1.6497,1.83185 -6.89879,7.82545 -11.66465,13.31911 -4.76586,5.49366 -8.97598,10.28848 -9.35582,10.65514 -0.37984,0.36667 -9.96604,11.46667 -21.30266,24.66667 -17.33879,20.18872 -50.99515,58.95836 -60.43878,69.621 l -2.61658,2.95434 13.90227,14.50815 c 36.87129,38.47816 65.14684,88.02005 84.23166,147.58317 6.33282,19.76455 6.84582,21.66391 22.1476,82 7.3462,28.96667 18.76209,73.66666 25.36863,99.33333 15.00697,58.30268 15.01109,63.0284 0.0622,71.33333 l -6,3.33334 h -48 -48 l -5.55438,-2.96982 c -8.19903,-4.38385 -9.88074,-7.58888 -20.83496,-39.70748 -28.25036,-82.83217 -45.21338,-130.66804 -46.66263,-131.58905 -2.37111,-1.50686 -86.12316,-1.28163 -91.61469,0.24638 -30.02926,8.35558 -26.03076,51.43216 5.72444,61.67035 l 8.27556,2.66812 24.71168,0.32408 c 32.84352,0.43072 37.50526,2.83644 44.23427,22.82741 11.93781,35.46555 49.11831,150.40533 90.74531,280.53 16.01943,50.07621 16.25602,52.8153 5.42777,62.83708 -8.01108,7.41444 -5.30307,7.16292 -77.11903,7.16292 -36.66667,0 -72.66667,-0.3 -80,-0.66667 z m 94.50296,-67.69962 c -8.85323,-26.30685 -68.48224,-214.62685 -75.24353,-237.6337 -3.77233,-12.83621 -2.23551,-11.88723 -20.66206,-12.75868 -32.87676,-1.55483 -51.78683,-9.85091 -72.17811,-31.66545 -44.21112,-47.29696 -21.52386,-127.45619 40.24741,-142.2032 9.13962,-2.18196 61.2205,-3.15813 92,-1.7244 l 25.33333,1.18004 7.94374,3.63893 c 21.62199,9.90477 21.18516,9.0005 66.76168,138.19942 l 11.05323,31.33334 12.2783,0.38545 12.2783,0.38545 -0.91777,-3.71878 c -0.50477,-2.04534 -5.12129,-19.01879 -10.25894,-37.71879 -5.13764,-18.7 -15.01873,-55.3 -21.95797,-81.33333 C 771.73754,431.04882 758.59943,399.82124 726.11317,356.66666 631.03264,230.36214 424.52175,214.90988 320.0088,326.27974 c -64.96579,69.22808 -85.05113,178.69263 -60.74409,331.05358 3.03881,19.04779 2.70668,22.72723 -7.67249,85 l -9.61146,57.66666 92.00962,0.0371 c 111.91236,0.0451 113.58828,0.1149 123.52348,5.14286 13.68264,6.92443 100.36347,58.9003 107.1528,64.25133 3.66666,2.8899 9.79002,6.4317 13.60745,7.87067 6.56555,2.47485 16.40672,7.89288 43.46764,23.93097 18.13429,10.74757 14.03225,10.14103 65.83189,9.73411 l 46.62653,-0.36629 z M 204,645.18197 c 0,-1.18324 -0.62368,-5.38324 -1.38595,-9.33333 C 181.60732,526.99173 200.83328,401.40973 250.10635,325.63375 338.3388,189.943 533.61255,154.50904 686.6862,246.4129 l 4.68621,2.81355 36.64712,-42.67954 c 20.15592,-23.47375 38.30414,-44.6859 40.32938,-47.13812 l 3.68226,-4.45858 -14.82115,-9.57791 C 663.24528,84.649252 534.18579,60.948343 423.5538,84.098576 226.50903,125.33106 106.57949,294.53775 134.03433,492.57702 c 6.20063,44.72689 25.03863,116.96544 39.83499,152.7563 0.66406,1.60628 3.71118,2 15.47875,2 H 204 Z"
         id="path6014" />
      <path
         style="fill:#000000"
         d="m 687.99999,965.33331 c -63.06545,-0.63702 -71.74442,-1.17748 -69.78633,-4.34572 0.50177,-0.81189 0.22554,-1.00442 -0.65779,-0.45848 -2.08234,1.28695 -20.22255,-9.48195 -20.22255,-12.00509 0,-1.2302 -0.96581,-1.86137 -2.4607,-1.60812 -2.4305,0.41176 -56.20596,-30.40112 -56.20596,-32.20553 0,-0.51294 -0.75,-0.94435 -1.66667,-0.9587 -2.24846,-0.0352 -17.15635,-9.1509 -16.32502,-9.98223 0.36209,-0.36209 -0.0944,-0.65835 -1.01434,-0.65835 -3.1225,0 -19.52678,-10.24773 -18.70877,-11.68735 0.44495,-0.78307 0.33851,-0.99947 -0.23653,-0.48089 -1.60207,1.44477 -11.63064,-4.12855 -10.55642,-5.86667 0.5526,-0.89413 0.31627,-1.11524 -0.59202,-0.55388 -2.07455,1.28214 -7.19167,-1.63875 -6.0649,-3.46189 0.54838,-0.88731 0.29958,-1.09518 -0.62608,-0.52309 -1.73312,1.07113 -16.37658,-7.18791 -15.43773,-8.707 0.33292,-0.53868 -0.0972,-1.41357 -0.95579,-1.94422 -1.03124,-0.63735 -1.20191,-0.38364 -0.50282,0.74751 1.37346,2.22231 0.32191,1.76012 -10.32381,-4.53758 -4.86925,-2.8805 -8.62782,-5.60193 -8.35237,-6.04761 0.97925,-1.58447 -5.32462,-1.71089 -126.73534,-2.5417 l -122.76527,-0.84007 -4.82016,-3.30346 c -2.65109,-1.81689 -4.58223,-3.54138 -4.29143,-3.83218 0.29081,-0.29081 -0.57819,-1.50425 -1.9311,-2.69655 -4.42192,-3.89695 -7.26829,-17.53897 -4.07168,-19.51459 0.7453,-0.46061 1.03716,-1.3519 0.64858,-1.98063 -0.75079,-1.21481 2.83228,-25.9596 4.24836,-29.33926 0.4609,-1.1 0.73017,-2.48774 0.59837,-3.08387 -0.54982,-2.48682 8.36569,-52.73395 9.25881,-52.18197 0.53649,0.33157 0.68497,-0.50792 0.32994,-1.86553 -0.35502,-1.35762 0.60093,-9.43028 2.12435,-17.93926 1.52341,-8.50897 2.76643,-16.24902 2.76226,-17.20011 -0.006,-1.3543 -5.71577,-1.75379 -26.33333,-1.84239 -28.63976,-0.12308 -30.85577,-0.59727 -37.85875,-8.10116 -4.13234,-4.42792 -12.21282,-22.7876 -11.19578,-25.43797 0.38403,-1.00076 0.16702,-1.49126 -0.48223,-1.09 -2.51216,1.5526 -27.449586,-70.83716 -26.08427,-75.71887 0.53451,-1.91115 0.40241,-2.29716 -0.3948,-1.15364 -2.520907,3.61598 -15.26324,-52.24174 -20.455551,-89.66962 -5.881152,-42.39329 -4.282103,-126.76606 2.550696,-134.58573 1.24388,-1.42354 1.5116,-2.14971 0.594933,-1.6137 -2.17318,1.27072 -2.138124,0.73846 1,-15.18283 1.466667,-7.44115 2.666667,-13.82066 2.666667,-14.1767 0,-0.35604 0.45,-0.37407 1,-0.0401 0.55,0.33402 1.068568,-1.91874 1.152374,-5.00612 0.166954,-6.15053 13.808941,-48.12152 17.937531,-55.18667 1.41722,-2.42525 2.58227,-5.12525 2.58901,-6 0.0166,-2.15478 14.29901,-31.59045 15.32793,-31.59045 0.44946,0 0.38908,0.6927 -0.13417,1.53934 -0.59417,0.96139 -0.36524,1.1771 0.60973,0.57454 0.8586,-0.53065 1.22356,-1.51095 0.81102,-2.17846 -0.70335,-1.13803 1.46985,-6.46143 3.23951,-7.93542 0.44022,-0.36667 1.84069,-2.91667 3.11216,-5.66667 1.27147,-2.75 3.18606,-5 4.25464,-5 1.06859,0 2.37672,-0.70196 2.90697,-1.55992 0.64645,-1.04598 0.23978,-1.28197 -1.23437,-0.71629 -1.76442,0.67707 -1.61018,-0.0647 0.78127,-3.75691 1.63885,-2.53029 3.66306,-4.60796 4.49825,-4.61704 0.83518,-0.009 1.43518,-1.0665 1.33333,-2.34984 -0.10281,-1.29537 0.6003,-2.17036 1.58059,-1.96696 0.97117,0.2015 1.36906,-0.27553 0.88419,-1.06006 -0.9289,-1.50299 9.50004,-15.97298 11.51218,-15.97298 0.64415,0 1.17119,-0.76329 1.17119,-1.69621 0,-3.36857 8.2663,-12.00634 9.64623,-10.0797 0.94935,1.32546 1.08124,1.18313 0.51996,-0.56116 -0.87416,-2.71658 15.90042,-22.85783 17.97119,-21.57802 0.69411,0.42898 1.09715,-0.0146 0.89565,-0.9858 -0.2015,-0.97118 0.42823,-1.60091 1.39941,-1.3994 0.97117,0.2015 1.43966,-0.16129 1.04109,-0.80619 -0.78265,-1.26635 5.49409,-7.77699 6.96722,-7.22685 0.49092,0.18333 0.89258,-0.20836 0.89258,-0.87043 0,-1.95678 8.0009,-9.01816 9.61021,-8.48172 0.81331,0.2711 1.92644,-0.23146 2.47361,-1.11681 0.63192,-1.02246 0.43328,-1.26265 -0.54448,-0.65836 -7.63725,4.72008 12.71488,-12.82027 28.36445,-24.44571 4.34708,-3.22928 8.69708,-5.87141 9.66666,-5.87141 0.96959,0 1.4655,-0.29739 1.10203,-0.66086 -0.97911,-0.979102 12.20386,-9.561365 14.68694,-9.561365 1.17221,0 1.82118,-0.501775 1.44215,-1.115055 -1.09467,-1.771211 15.08416,-10.249369 18.66369,-9.780294 2.40387,0.315012 3.2014,-0.211786 3.2014,-2.114647 0,-2.299028 13.39307,-10.268946 13.98698,-8.323337 0.11192,0.366667 1.29783,-0.427667 2.63535,-1.765185 1.94268,-1.942677 2.65698,-2.076779 3.55101,-0.666667 0.86994,1.372096 1.12371,1.283959 1.13958,-0.395783 0.0253,-2.68168 21.62871,-12.650518 24.10211,-11.121874 1.01511,0.62737 1.32683,0.483196 0.79963,-0.369833 -1.88741,-3.053891 52.71869,-21.261363 57.38652,-19.134557 1.68602,0.768201 3.06549,0.859593 3.06549,0.203092 0,-0.6565 -0.75,-1.446269 -1.66667,-1.755043 -0.91666,-0.308773 0.59354,-0.987875 3.35602,-1.509116 2.76247,-0.521241 5.70517,-0.525904 6.53934,-0.01036 0.87366,0.539951 1.15232,0.347822 0.65727,-0.453177 -1.18988,-1.925272 26.68288,-7.107462 33.28062,-6.187637 3.88353,0.541422 4.67003,0.36682 3.16675,-0.703017 l -2,-1.42334 2.88889,-0.02042 c 1.58889,-0.01123 3.17004,0.729582 3.51366,1.646249 0.45758,1.220649 1.11174,1.077079 2.44445,-0.536488 1.00082,-1.211735 4.13081,-2.448393 6.95553,-2.748127 4.14364,-0.439686 4.72723,-0.246169 3.02073,1.001657 -1.16333,0.850646 -1.73538,1.926391 -1.27123,2.390544 0.46415,0.464152 1.93778,-0.417319 3.27472,-1.958825 l 2.4308,-2.802738 26.83082,-0.839678 c 36.80624,-1.151862 92.9304,1.343742 85.91423,3.820241 l -2.66406,0.940335 4.33073,0.635616 c 2.3819,0.349588 4.33073,0.139531 4.33073,-0.466794 0,-1.502982 4.99069,-1.40217 5.93133,0.119813 0.41545,0.672222 3.38975,1.222222 6.60956,1.222222 6.79222,0 34.23841,5.272375 35.95491,6.90689 0.63936,0.60882 1.99617,0.787028 3.01512,0.396018 1.11648,-0.428432 1.66857,0.01033 1.38939,1.104193 -0.25479,0.998317 -0.2116,1.365121 0.096,0.815121 0.81742,-1.461624 5.37588,-1.221844 6.33703,0.333333 0.45323,0.733334 2.29769,1.333334 4.09882,1.333334 5.47457,0 19.20267,4.306171 18.31369,5.744561 -0.47168,0.763202 -0.15187,0.918396 0.74734,0.362655 2.40334,-1.485342 9.50682,0.522059 9.50682,2.68657 0,1.258348 1.25759,1.833342 3.66666,1.676461 4.98512,-0.324636 19.07816,4.324607 18.06723,5.960317 -0.46833,0.757779 -0.12635,0.890672 0.80724,0.313687 C 696.40695,52.9244 704,55.714703 704,57.5535 c 0,0.676512 0.76558,1.054213 1.70129,0.839336 2.69371,-0.618584 20.87042,7.152369 20.56974,8.794026 -0.14907,0.813869 1.30512,1.539294 3.23153,1.612056 4.56341,0.172363 17.83077,6.797091 17.83077,8.903355 0,0.897059 1.5,1.691893 3.33333,1.766298 4.75708,0.193062 17.33333,6.872198 17.33333,9.205578 0,1.243012 1.14534,1.867812 3.12378,1.704072 2.52014,-0.208574 15.45748,6.605359 18.20956,9.590745 0.36666,0.397754 2.96057,1.917444 5.76424,3.377084 2.80367,1.45965 5.80367,3.51908 6.66667,4.57652 1.222,1.49733 1.20042,1.70112 -0.0976,0.92131 -1.0161,-0.61045 -1.66667,-0.27357 -1.66667,0.86304 0,1.22356 1.33637,1.78483 3.88817,1.63302 2.74608,-0.16336 5.30171,1.06368 8.70052,4.1774 2.6468,2.42478 5.24713,4.57533 5.7785,4.77899 0.53138,0.20366 0.80128,0.86489 0.59978,1.4694 -0.20151,0.60451 0.25914,0.71252 1.02365,0.24003 1.83817,-1.13606 12.00938,6.9795 12.00938,9.58222 0,1.22786 0.76576,1.73677 1.93702,1.28731 1.99426,-0.76527 8.67169,5.98543 8.79711,8.89363 0.0371,0.86041 0.21304,4.45964 0.39097,7.9983 0.21178,4.21209 -0.45289,7.66542 -1.92472,10 -3.95447,6.27249 -28.0376,32.91324 -29.40973,32.53303 -0.72721,-0.2015 -0.9572,0.2242 -0.5111,0.946 1.35408,2.19095 -8.80481,12.54692 -10.28622,10.48577 -0.92894,-1.29248 -1.06929,-1.17873 -0.55302,0.4482 0.83176,2.62113 -2.76105,8.19091 -4.56457,7.07627 -0.70133,-0.43344 -1.11027,-0.0425 -0.90877,0.86869 0.2015,0.91122 -0.83363,2.32182 -2.3003,3.13467 -1.46667,0.81284 -2.83502,2.26695 -3.04078,3.23135 -0.60268,2.82472 -7.47418,10.84201 -9.29255,10.84205 -0.91667,2e-5 -1.67385,0.75004 -1.68262,1.66671 -0.0244,2.54723 -17.33336,22.33333 -19.53732,22.33333 -1.06559,0 -1.59603,0.55242 -1.17874,1.2276 0.41728,0.67518 -3.89731,6.5448 -9.58798,13.0436 -5.69067,6.4988 -11.19893,12.88106 -12.24057,14.1828 l -1.89389,2.36681 10.65897,10.92293 c 16.05185,16.44935 23.12881,24.93535 23.12881,27.73379 0,1.38736 0.78717,2.52247 1.74926,2.52247 2.31207,0 7.9376,7.68263 6.87934,9.39493 -0.45474,0.73579 -0.0322,1.17294 0.93896,0.97144 0.97118,-0.20151 1.77343,0.64128 1.78278,1.87285 0.009,1.23158 0.55555,2.73158 1.21377,3.33334 0.69723,0.63742 0.74328,0.31244 0.11032,-0.77858 -0.75378,-1.29926 -0.58727,-1.56416 0.54379,-0.86513 0.89664,0.55415 1.29622,1.87802 0.88795,2.94193 -0.40826,1.06391 -0.20041,1.59948 0.46189,1.19016 1.59856,-0.98797 6.76528,7.4865 6.76528,11.09643 0,1.56345 0.8487,2.84263 1.886,2.84263 2.61674,0 9.09415,11.84089 9.0154,16.48038 -0.0452,2.66112 0.70216,4.01427 2.47277,4.4773 2.33097,0.60956 4.50102,4.28539 4.6199,7.8256 0.0268,0.79747 1.0896,2.49087 2.36184,3.7631 1.53252,1.53253 2.04004,3.40133 1.50386,5.53763 -0.57783,2.30224 -0.1693,3.47006 1.42837,4.08314 2.81995,1.08212 8.71186,14.20978 8.71186,19.41077 0,2.15203 0.51226,3.59619 1.13836,3.20924 0.6261,-0.38695 1.8261,0.80587 2.66667,2.65071 1.95357,4.28764 1.94919,6.31296 -0.011,5.10147 -0.96138,-0.59417 -1.17709,-0.36524 -0.57453,0.60973 0.53064,0.8586 1.45935,1.25545 2.06378,0.88189 0.60443,-0.37356 1.46042,0.76091 1.90218,2.52105 0.44177,1.76014 1.20774,4.25442 1.70215,5.54284 0.66909,1.74361 0.41485,2.09093 -0.99431,1.35833 -1.04129,-0.54135 -0.71612,-0.0307 0.7226,1.13484 1.93705,1.56922 2.55757,3.58041 2.39128,7.75046 -0.14147,3.54769 0.19341,4.95506 0.90506,3.80359 1.15758,-1.87301 1.46522,-1.27168 3.50848,6.85792 0.59559,2.36971 0.45982,2.5798 -0.64625,1 l -1.40026,-2 -0.0204,2.33334 c -0.0112,1.28333 0.76392,2.33333 1.72256,2.33333 2.14884,0 6.46792,15.98483 6.73323,24.91959 0.12897,4.3433 0.72848,6.30614 1.85712,6.08041 0.91667,-0.18333 1.67486,0.41667 1.68488,1.33333 0.01,0.91667 0.40452,3.11049 0.87669,4.87517 0.64565,2.413 0.43296,2.94549 -0.85785,2.14773 -1.08875,-0.67288 -1.51901,-0.46879 -1.17669,0.55818 0.2968,0.89041 1.11558,1.5385 1.81951,1.4402 2.1,-0.29325 7.31592,22.67078 6.43063,28.31206 -0.63579,4.05138 -0.37288,5 1.38575,5 1.19373,0 2.17042,0.30385 2.17042,0.67524 0,0.37138 1.8282,7.88304 4.06267,16.69258 2.23446,8.80954 3.64176,16.69839 3.12732,17.53077 -0.52342,0.84691 -0.34632,1.14938 0.40213,0.68682 1.69654,-1.04852 4.79699,12.381 3.66042,15.85498 -0.5681,1.73639 -0.44647,2.01777 0.37818,0.87491 1.03889,-1.43979 16.08293,53.51325 16.97911,62.02149 0.13497,1.28143 0.7201,3.38751 1.30029,4.68018 0.63843,1.42246 0.38324,3.15959 -0.64642,4.40025 -1.39678,1.68302 -1.3163,2.43494 0.44964,4.20088 l 2.15095,2.15095 -0.63643,-3.21786 -0.63642,-3.21786 1.44425,3.31432 c 0.79435,1.82288 1.16723,4.37371 0.82863,5.66851 -0.3386,1.2948 -0.0716,2.01794 0.59335,1.60698 1.69248,-1.04601 1.51152,8.81108 -0.25478,13.87789 -0.80507,2.30943 -2.28624,4.19896 -3.29148,4.19896 -1.01649,0 -1.51064,0.8263 -1.11334,1.86166 0.88979,2.31874 -4.35463,6.13834 -8.42808,6.13834 -1.67017,0 -3.03666,0.6 -3.03666,1.33334 0,0.73333 -1.16459,1.33333 -2.58798,1.33333 -1.42339,0 -2.9588,-0.6 -3.41202,-1.33333 -0.45323,-0.73334 -1.42405,-1.33334 -2.15738,-1.33334 -0.73333,0 -0.96251,0.6 -0.50929,1.33334 0.74921,1.21224 -3.39939,2.06153 -6.66666,1.36478 -5.0538,-1.07773 -6,-1.07582 -6,0.0121 0,0.6929 -1.30143,0.76598 -3,0.16848 -1.65,-0.58041 -7.78543,-0.90449 -13.63429,-0.72017 -6.03592,0.19021 -11.36897,-0.27462 -12.33334,-1.07497 -1.21981,-1.01235 -1.69904,-0.94771 -1.69904,0.22917 0,0.90931 -0.89057,1.2975 -2,0.87177 -1.1,-0.42211 -2.00919,-0.0363 -2.02042,0.85735 -0.0149,1.18747 -0.31752,1.15638 -1.12421,-0.11551 -0.8098,-1.27679 -2.97175,-1.49254 -8.11682,-0.81002 -5.32493,0.70637 -7.29601,0.4834 -8.1887,-0.92634 -0.93901,-1.48289 -1.17979,-1.38693 -1.1961,0.47669 -0.0217,2.4755 -4.78645,3.35022 -5.57597,1.02363 -0.26326,-0.77579 -2.00162,-0.89222 -4.26421,-0.28561 -4.88091,1.3086 -13.08381,0.39065 -12.01164,-1.34416 0.46173,-0.74708 -0.26405,-1.07483 -1.67736,-0.75748 -3.51205,0.78861 -9.15817,-2.2762 -12.18872,-6.61626 -3.0969,-4.43507 -8.53633,-20.22978 -7.52843,-21.8606 0.39415,-0.63774 0.13331,-1.15952 -0.57963,-1.15952 -1.56159,0 -16.41967,-43.89024 -15.41073,-45.52274 0.38884,-0.62916 0.1223,-1.14393 -0.59233,-1.14393 -1.77958,0 -11.21378,-29.01241 -10.04772,-30.89913 0.51426,-0.83209 0.38623,-1.17372 -0.2845,-0.75919 -0.67074,0.41454 -5.30038,-11.04275 -10.2881,-25.46065 -4.98772,-14.4179 -10.12611,-28.91436 -11.41865,-32.21436 l -2.35008,-6 -41.2345,-0.39884 c -50.75158,-0.4909 -53.22012,-0.24787 -60.46406,5.95267 -12.83392,10.98536 -15.12677,27.46545 -5.86674,42.16779 2.47066,3.92272 2.8013,5.00976 1.09854,3.61171 l -2.43591,-2 0.66065,2 c 0.36336,1.1 1.80831,2.22238 3.211,2.49417 3.54107,0.68614 8.67474,4.92682 7.5168,6.20926 -0.52514,0.58159 -0.27371,0.66843 0.55872,0.19298 1.97899,-1.13034 10.02987,1.68504 9.10374,3.18355 -0.39211,0.63445 0.95861,1.15049 3.00158,1.14677 2.04298,-0.004 16.04226,0.46875 31.10952,1.04992 l 27.39503,1.05669 3.60497,2.36407 c 3.90173,2.55867 4.83544,4.3934 1.60498,3.15376 -1.18259,-0.45381 -2,-0.0152 -2,1.07327 0,1.16663 1.20716,1.70824 3.2963,1.47891 3.61506,-0.39684 6.8762,2.43998 7.58336,6.59665 0.24952,1.46667 0.9399,3.02447 1.53418,3.46178 0.59428,0.43732 1.19428,2.92669 1.33334,5.53195 0.13905,2.60525 0.60504,4.52248 1.03552,4.26049 0.69765,-0.42457 6.84097,18.07705 7.10982,21.41245 0.0591,0.73333 0.46363,1.63333 0.89892,2 0.85811,0.72284 8.83044,24.48854 9.6394,28.7353 0.27219,1.42892 1.23099,4.39803 2.13067,6.59803 1.63694,4.00286 10.77182,31.42864 10.77182,32.34041 0,0.266 -0.6,0.11282 -1.33333,-0.34041 -0.73333,-0.45322 -1.33333,-0.18863 -1.33333,0.58798 0,0.77661 0.82202,1.41202 1.82672,1.41202 2.18367,0 5.57156,11.07087 4.11106,13.43401 -0.63773,1.03186 -0.46609,1.30452 0.46065,0.73177 0.92959,-0.57452 2.01957,1.20248 2.94054,4.79399 0.80489,3.13879 2.33289,7.96904 3.39556,10.73388 2.28728,5.951 2.37049,6.73465 0.5988,5.63968 -0.73333,-0.45322 -1.33333,-2.08863 -1.33333,-3.63424 0,-1.54561 -0.37206,-2.43814 -0.8268,-1.9834 -1.53814,1.53814 0.86225,7.61764 3.00771,7.61764 1.47416,0 1.91521,0.82175 1.43227,2.66851 -0.43521,1.66427 -0.16967,2.34209 0.70562,1.80113 0.93087,-0.57531 1.09985,0.43424 0.50182,2.99816 -0.52186,2.23736 -0.42711,3.1585 0.22495,2.18693 1.56011,-2.3246 6.03148,12.18169 4.94604,16.04627 -0.54284,1.93272 -0.41842,2.37156 0.35721,1.25994 1.03362,-1.48136 4.35997,7.70079 11.96882,33.03906 l 0.60058,2 -1.4387,-2 -1.43869,-2 -0.0204,2.33334 c -0.0112,1.28333 0.78462,2.33333 1.76854,2.33333 0.98392,0 2.48287,2.25 3.33101,5 0.84813,2.75 2.99921,9.65828 4.78017,15.35173 1.78096,5.69346 2.682,10.00805 2.00232,9.58798 -0.67968,-0.42006 -1.23579,-0.19254 -1.23579,0.50561 0,0.69816 0.7686,1.56431 1.70799,1.92479 2.17364,0.83411 6.74804,15.14666 5.49103,17.18054 -0.62307,1.00816 -0.34919,1.1602 0.805,0.44686 1.29751,-0.8019 1.55949,-0.35502 1.01423,1.73006 -0.40434,1.54618 -0.0988,3.02334 0.67885,3.28257 0.77771,0.25924 1.41402,2.38801 1.41402,4.7306 0,2.34259 0.53541,4.25926 1.1898,4.25926 0.65439,0 0.81898,0.6 0.36575,1.33333 -0.45322,0.73334 -0.29821,1.33334 0.34448,1.33334 0.64269,0 2.25529,3.45 3.58354,7.66666 1.32826,4.21667 2.7398,8.5151 3.13675,9.55206 0.49725,1.29897 0.13286,1.57925 -1.17152,0.90112 -1.04129,-0.54134 -0.72442,-0.0367 0.70414,1.12135 1.74195,1.41214 2.55389,3.64037 2.46531,6.76555 -0.0726,2.56296 0.38737,4.65992 1.02227,4.65992 1.81007,0 9.24836,25.26772 9.24836,31.41648 0,5.94713 -4.95917,14.8755 -7.89677,14.21715 -0.89913,-0.2015 -1.27106,0.22214 -0.82651,0.94143 4.07771,6.59788 -12.40086,7.67621 -103.27671,6.75827 z m 42.1455,-54.50127 4.14551,-0.16539 -7.06258,-21.66667 c -18.11809,-55.58283 -61.85792,-193.63928 -71.497,-225.66666 -5.22556,-17.36274 -3.86887,-16.33101 -21.80101,-16.57926 -29.01757,-0.40173 -49.07214,-8.58307 -68.76192,-28.05171 -48.09718,-47.55699 -27.92762,-128.09434 36.24401,-144.72288 l 8.29424,-2.14925 51.12024,0.0733 c 73.66858,0.10566 82.90267,3.70762 95.02741,37.06742 2.07143,5.69929 10.5505,28.96235 18.84238,51.69569 10.02646,27.48893 15.06265,43.1197 15.03585,46.66666 -0.0261,3.44896 0.28088,4.43734 0.86872,2.7974 0.91166,-2.54334 2.48172,1.21661 10.8023,25.86927 1.60881,4.76666 3.30114,9.07372 3.76073,9.57123 1.63469,1.76957 24.16895,1.96907 24.16895,0.21397 0,-0.8975 -3.04364,-12.61633 -6.76365,-26.04184 -3.72,-13.42552 -13.59148,-49.91003 -21.93661,-81.07669 C 766.78943,412.27048 748.73976,374.66439 698.48132,325.83582 618.92943,248.5472 484.00433,228.66698 382.66336,279.30236 270.23359,335.4783 227.17481,467.62057 259.26412,657.99999 c 3.26032,19.34283 3.59584,15.80228 -8.08667,85.33333 -2.58749,15.4 -5.52474,33.4066 -6.52722,40.01467 -1.00248,6.60807 -2.22309,13.05807 -2.71245,14.33333 -0.64888,1.69094 -0.21944,2.31625 1.58623,2.30977 74.51435,-0.26775 205.92358,1.28787 208.84893,2.47234 8.35544,3.38312 103.98699,60.41022 112.29372,66.96311 3.66666,2.89251 9.81551,6.44598 13.66409,7.8966 3.84859,1.45062 17.34859,8.73463 30,16.18668 12.65142,7.45205 25.24434,14.56106 27.98428,15.79781 l 4.98172,2.24863 42.35162,-0.27942 c 23.29339,-0.15368 44.21709,-0.35384 46.49712,-0.4448 z M 204.85827,646.71322 c 0.10538,-0.0256 -0.30572,-2.29657 -0.91356,-5.04657 -9.51506,-43.04822 -11.60523,-121.62743 -4.56859,-171.75487 18.37466,-130.8969 87.42267,-219.83313 200.15984,-257.8128 88.25374,-29.73152 197.79027,-17.85028 279.65733,30.33397 13.8995,8.18079 12.47274,8.08745 17.61305,1.15224 2.27683,-3.07186 4.87143,-5.42033 5.76577,-5.21883 0.89435,0.20151 1.26823,-0.21265 0.83086,-0.92034 -0.43738,-0.70769 13.76802,-18.18453 31.56756,-38.83743 17.79953,-20.6529 33.42796,-38.94087 34.72983,-40.63994 l 2.36704,-3.08921 -11.03371,-7.22491 C 582.18603,30.544437 335.29724,57.919552 210.78169,208.66666 116.847,322.39047 105.54193,456.24904 173.84654,645.99999 c 0.34449,0.95699 27.4442,1.58026 31.01173,0.71323 z"
         id="path6013" />
    </g>
  </g>
</svg>
